<svg xmlns="http://www.w3.org/2000/svg" xmlns:xlink="http://www.w3.org/1999/xlink" viewBox="0 0 522.06 173.53" xmlns:v="https://vecta.io/nano"><style>.A{isolation:isolate}.C{mix-blend-mode:multiply}.AP{mix-blend-mode:luminosity}.Ar{mix-blend-mode:overlay}</style><defs><linearGradient id="A" x1="2.27" y1="118.93" x2="156.79" y2="118.93" xlink:href="#Aq"><stop offset="0" stop-color="#d2bd73"/><stop offset=".11" stop-color="#d1bb6f"/><stop offset=".23" stop-color="#ccb561"/><stop offset=".36" stop-color="#c5aa4c"/><stop offset=".48" stop-color="#bb9c2d"/><stop offset=".55" stop-color="#b5931a"/><stop offset=".67" stop-color="#b79620"/><stop offset=".82" stop-color="#bc9d2f"/><stop offset=".98" stop-color="#c5a949"/><stop offset="1" stop-color="#c6ab4d"/></linearGradient><linearGradient id="B" x1="2.27" y1="118.93" x2="156.79" y2="118.93" xlink:href="#Aq"><stop offset="0" stop-color="#d6c37f"/><stop offset=".55" stop-color="#d6c37f"/><stop offset=".83" stop-color="#d4c079"/><stop offset="1" stop-color="#d2bd73"/></linearGradient><linearGradient id="C" x1="7.28" y1="49.18" x2="151.51" y2="49.18" xlink:href="#Aq"><stop offset="0" stop-color="#d2bd73"/><stop offset=".1" stop-color="#d4c078"/><stop offset=".22" stop-color="#d8c788"/><stop offset=".35" stop-color="#e0d3a1"/><stop offset=".37" stop-color="#e2d5a6"/><stop offset=".53" stop-color="#d8c686"/><stop offset=".72" stop-color="#ceb767"/><stop offset=".89" stop-color="#c8ae54"/><stop offset="1" stop-color="#c6ab4d"/></linearGradient><linearGradient id="D" x1="19.76" y1="121.88" x2="14.06" y2="108.12" xlink:href="#Aq"><stop offset="0" stop-color="#a4814c"/><stop offset=".6" stop-color="#a6834c"/><stop offset=".82" stop-color="#ad894b"/><stop offset=".98" stop-color="#b89449"/><stop offset="1" stop-color="#bb9649"/></linearGradient><linearGradient id="E" x1="15.01" y1="109.34" x2="9.07" y2="95" xlink:href="#Aq"><stop offset="0" stop-color="#decf99"/><stop offset=".38" stop-color="#e4cf95"/><stop offset="1" stop-color="#a78342"/></linearGradient><linearGradient id="F" x1="23.59" y1="137.16" x2="43.37" y2="137.16" xlink:href="#Aq"><stop offset="0" stop-color="#a88442"/><stop offset=".45" stop-color="#9e7a3e"/><stop offset="1" stop-color="#9b773d"/></linearGradient><linearGradient id="G" x1="29.452" y1="132.925" x2="20.603" y2="124.168" xlink:href="#Aq"><stop offset="0" stop-color="#d2bd73"/><stop offset="1" stop-color="#a4814c"/></linearGradient><linearGradient id="H" x1="40.33" y1="140.26" x2="54.39" y2="154.32" xlink:href="#Aq"><stop offset="0" stop-color="#9a773d"/><stop offset=".17" stop-color="#9d7b40"/><stop offset=".32" stop-color="#a6864a"/><stop offset=".47" stop-color="#b5995b"/><stop offset=".62" stop-color="#cab373"/><stop offset=".7" stop-color="#d7c482"/><stop offset=".7" stop-color="#d5c280"/><stop offset=".78" stop-color="#bba163"/><stop offset=".86" stop-color="#a98a4e"/><stop offset=".94" stop-color="#9e7c41"/><stop offset="1" stop-color="#9a773d"/></linearGradient><linearGradient id="I" x1="83.02" y1="159.89" x2="65.2" y2="149.6" xlink:href="#Aq"><stop offset="0" stop-color="#9a773d"/><stop offset=".12" stop-color="#9c793f"/><stop offset=".17" stop-color="#a17e46"/><stop offset=".2" stop-color="#ab8951"/><stop offset=".23" stop-color="#b89762"/><stop offset=".23" stop-color="#be9d69"/><stop offset=".26" stop-color="#b89762"/><stop offset=".34" stop-color="#ab8951"/><stop offset=".45" stop-color="#a17e46"/><stop offset=".59" stop-color="#9c793f"/><stop offset="1" stop-color="#9a773d"/></linearGradient><linearGradient id="J" x1="91.73" y1="151.62" x2="111.62" y2="151.62" xlink:href="#Aq"><stop offset="0" stop-color="#927038"/><stop offset=".36" stop-color="#947239"/><stop offset=".51" stop-color="#9b793c"/><stop offset=".63" stop-color="#a88441"/><stop offset=".72" stop-color="#b99448"/><stop offset=".73" stop-color="#bb9649"/><stop offset=".74" stop-color="#b89448"/><stop offset=".81" stop-color="#a88442"/><stop offset=".89" stop-color="#9e7a3e"/><stop offset="1" stop-color="#9b773d"/></linearGradient><linearGradient id="K" x1="129.41" y1="124.04" x2="139.45" y2="134.07" xlink:href="#Aq"><stop offset="0" stop-color="#9b773d"/><stop offset=".48" stop-color="#9d793f"/><stop offset=".7" stop-color="#a48144"/><stop offset=".87" stop-color="#b18d4d"/><stop offset="1" stop-color="#c19e59"/></linearGradient><linearGradient id="L" x1="145.839" y1="108.236" x2="139.814" y2="123.001" xlink:href="#Aq"><stop offset="0" stop-color="#9b773d"/></linearGradient><linearGradient id="M" x1="140.924" y1="101.987" x2="153.964" y2="106.727" xlink:href="#Aq"><stop offset="0" stop-color="#9b773d"/><stop offset=".2" stop-color="#9f7b41"/><stop offset=".4" stop-color="#aa874d"/><stop offset=".6" stop-color="#bc9b61"/><stop offset=".72" stop-color="#caab71"/><stop offset=".82" stop-color="#c7a86e"/><stop offset=".88" stop-color="#bf9f65"/><stop offset=".94" stop-color="#b08f55"/><stop offset="1" stop-color="#9c793f"/><stop offset="1" stop-color="#9a773d"/></linearGradient><linearGradient id="N" x1="146.557" y1="67.927" x2="146.609" y2="79.354" xlink:href="#Aq"><stop offset="0" stop-color="#b4976b"/><stop offset=".27" stop-color="#b79b6e"/><stop offset=".53" stop-color="#c1a676"/><stop offset=".78" stop-color="#d1b984"/><stop offset="1" stop-color="#e5d195"/></linearGradient><linearGradient id="O" x1="18.669" y1="97.226" x2="22.955" y2="86.848" xlink:href="#Aq"><stop offset="0" stop-color="#b28b4a"/><stop offset="1" stop-color="#9a773d"/></linearGradient><linearGradient id="P" x1="17.3" y1="99.73" x2="28.5" y2="99.73" xlink:href="#Aq"><stop offset="0" stop-color="#b28b4a"/><stop offset=".11" stop-color="#b79251"/><stop offset=".28" stop-color="#c5a466"/><stop offset=".47" stop-color="#dbc287"/><stop offset=".55" stop-color="#e4cf95"/><stop offset="1" stop-color="#decf99"/></linearGradient><linearGradient id="Q" x1="28.02" y1="119.03" x2="28.02" y2="108.11" xlink:href="#Aq"><stop offset="0" stop-color="#a78342"/><stop offset="1" stop-color="#9a773d"/></linearGradient><linearGradient id="R" x1="34.751" y1="123.568" x2="31.931" y2="116.759" xlink:href="#Aq"><stop offset="0" stop-color="#decf99"/><stop offset=".38" stop-color="#e4cf95"/><stop offset=".39" stop-color="#e4cf95"/><stop offset=".56" stop-color="#c9ae71"/><stop offset=".73" stop-color="#b69657"/><stop offset=".88" stop-color="#ab8847"/><stop offset="1" stop-color="#a78342"/></linearGradient><linearGradient id="S" x1="45.569" y1="136.253" x2="41.356" y2="126.081" xlink:href="#Aq"><stop offset="0" stop-color="#bb9649"/><stop offset="1" stop-color="#9b773d"/></linearGradient><linearGradient id="T" x1="53.529" y1="137.852" x2="48.268" y2="132.591" xlink:href="#Aq"><stop offset="0" stop-color="#decf99"/><stop offset=".38" stop-color="#e4cf95"/><stop offset=".48" stop-color="#dbc283"/><stop offset=".7" stop-color="#c9aa64"/><stop offset=".88" stop-color="#bf9b50"/><stop offset="1" stop-color="#bb9649"/></linearGradient><linearGradient id="U" x1="68.197" y1="145.052" x2="60.525" y2="137.38" xlink:href="#Aq"><stop offset="0" stop-color="#cdb079"/><stop offset=".38" stop-color="#e4cf95"/><stop offset="1" stop-color="#9b773d"/></linearGradient><linearGradient id="V" x1="68.686" y1="147.055" x2="76.89" y2="138.85" xlink:href="#Aq"><stop offset="0" stop-color="#cdb079"/><stop offset=".38" stop-color="#e4cf95"/><stop offset=".52" stop-color="#e1cb91"/><stop offset=".65" stop-color="#d8c085"/><stop offset=".79" stop-color="#c9ae71"/><stop offset=".92" stop-color="#b59455"/><stop offset="1" stop-color="#a78342"/></linearGradient><linearGradient id="W" x1="90.708" y1="147.323" x2="82.287" y2="138.909" xlink:href="#Aq"><stop offset="0" stop-color="#decf99"/><stop offset=".38" stop-color="#e4cf95"/><stop offset=".42" stop-color="#d7c086"/><stop offset=".5" stop-color="#c1a56b"/><stop offset=".59" stop-color="#b09157"/><stop offset=".69" stop-color="#a48248"/><stop offset=".81" stop-color="#9d7a40"/><stop offset="1" stop-color="#9b773d"/></linearGradient><linearGradient id="X" x1="99.57" y1="140.17" x2="92.22" y2="140.17" xlink:href="#Aq"><stop offset="0" stop-color="#a78342"/><stop offset=".62" stop-color="#e4cf95"/><stop offset="1" stop-color="#decf99"/></linearGradient><linearGradient id="Y" x1="114.5" y1="138.08" x2="103" y2="133.9" xlink:href="#Aq"><stop offset="0" stop-color="#decf99"/><stop offset=".23" stop-color="#e4cf95"/><stop offset=".41" stop-color="#d2b77b"/><stop offset=".64" stop-color="#c19f60"/><stop offset=".84" stop-color="#b69050"/><stop offset="1" stop-color="#b28b4a"/></linearGradient><linearGradient id="Z" x1="116.951" y1="124.356" x2="116.949" y2="136.188" xlink:href="#Aq"><stop offset="0" stop-color="#9b773d"/><stop offset=".18" stop-color="#a17e44"/><stop offset=".44" stop-color="#b09056"/><stop offset=".74" stop-color="#caaf75"/><stop offset="1" stop-color="#e4cf95"/></linearGradient><linearGradient id="a" x1="132.152" y1="117.517" x2="122.054" y2="121.7" xlink:href="#Aq"><stop offset="0" stop-color="#d2bd73"/><stop offset=".39" stop-color="#d3b34f"/><stop offset="1" stop-color="#af8d52"/></linearGradient><linearGradient id="b" x1="127.26" y1="108.11" x2="135.11" y2="115.96" xlink:href="#Aq"><stop offset="0" stop-color="#9b773d"/><stop offset=".33" stop-color="#9d793e"/><stop offset=".47" stop-color="#a48040"/><stop offset=".57" stop-color="#af8d43"/><stop offset=".66" stop-color="#c09e49"/><stop offset=".73" stop-color="#d3b34f"/><stop offset="1" stop-color="#d2bd73"/></linearGradient><linearGradient id="c" x1="141.204" y1="94.95" x2="133.214" y2="102.941" xlink:href="#Aq"><stop offset="0" stop-color="#bb9649"/><stop offset=".17" stop-color="#be9a4e"/><stop offset=".37" stop-color="#c7a65b"/><stop offset=".57" stop-color="#d5b971"/><stop offset=".7" stop-color="#e1ca84"/><stop offset="1" stop-color="#d8ba60"/></linearGradient><linearGradient id="d" x1="136.643" y1="88.754" x2="145.069" y2="97.167" xlink:href="#Aq"><stop offset="0" stop-color="#9a773d"/><stop offset=".35" stop-color="#9e7b3e"/><stop offset=".69" stop-color="#aa8643"/><stop offset="1" stop-color="#bb9649"/></linearGradient><linearGradient id="e" x1="44.37" y1="32.15" x2="55.32" y2="32.15" xlink:href="#Aq"><stop offset="0" stop-color="#9b773d"/><stop offset="1" stop-color="#ceb766"/></linearGradient><linearGradient id="f" x1="59.95" y1="27" x2="67.2" y2="27" xlink:href="#Aq"><stop offset="0" stop-color="#bd9f33"/><stop offset="1" stop-color="#9b773d"/></linearGradient><linearGradient id="g" x1="66.456" y1="22.565" x2="76.581" y2="26.759" xlink:href="#Aq"><stop offset="0" stop-color="#9b773d"/><stop offset=".4" stop-color="#a6843a"/><stop offset="1" stop-color="#bd9f33"/></linearGradient><linearGradient id="h" x1="83.186" y1="23.931" x2="89.755" y2="26.652" xlink:href="#Aq"><stop offset="0" stop-color="#bb9549"/><stop offset=".04" stop-color="#b99348"/><stop offset=".63" stop-color="#a37f40"/><stop offset="1" stop-color="#9b773d"/></linearGradient><linearGradient id="i" x1="90.928" y1="22.195" x2="98.706" y2="29.974" xlink:href="#Aq"><stop offset="0" stop-color="#9b773d"/><stop offset=".15" stop-color="#a07e45"/><stop offset=".38" stop-color="#ae915b"/><stop offset=".67" stop-color="#c5b07f"/><stop offset=".99" stop-color="#e5dab1"/><stop offset="1" stop-color="#e6dbb2"/></linearGradient><linearGradient id="j" x1="109.369" y1="28.418" x2="109.369" y2="36.323" xlink:href="#L"/><linearGradient id="k" x1="116.515" y1="28.06" x2="116.503" y2="39.998" xlink:href="#Aq"><stop offset="0" stop-color="#9b773d"/><stop offset=".15" stop-color="#9f7c43"/><stop offset=".36" stop-color="#aa8b55"/><stop offset=".6" stop-color="#bda471"/><stop offset=".86" stop-color="#d6c699"/><stop offset="1" stop-color="#e6dbb2"/></linearGradient><linearGradient id="l" x1="129.158" y1="42.32" x2="122.67" y2="48.801" xlink:href="#Aq"><stop offset="0" stop-color="#bb9649"/><stop offset=".2" stop-color="#b48f46"/><stop offset="1" stop-color="#9b773d"/></linearGradient><linearGradient id="m" x1="134.03" y1="48.9" x2="129.42" y2="60.03" xlink:href="#Aq"><stop offset="0" stop-color="#bb9649"/><stop offset=".16" stop-color="#bd994e"/><stop offset=".36" stop-color="#c3a35d"/><stop offset=".57" stop-color="#cdb275"/><stop offset=".79" stop-color="#dac897"/><stop offset="1" stop-color="#eae1bf"/></linearGradient><linearGradient id="n" x1="140.415" y1="70.704" x2="136.328" y2="80.571" xlink:href="#Aq"><stop offset="0" stop-color="#b28b4a"/><stop offset=".22" stop-color="#b48e4e"/><stop offset=".41" stop-color="#ba9759"/><stop offset=".6" stop-color="#c4a56b"/><stop offset=".78" stop-color="#d3ba85"/><stop offset=".95" stop-color="#e5d5a6"/><stop offset="1" stop-color="#ebddb0"/></linearGradient><linearGradient id="o" x1="134.12" y1="71.19" x2="139.7" y2="65.61" xlink:href="#Aq"><stop offset="0" stop-color="#9b773d"/><stop offset=".21" stop-color="#a78144"/><stop offset=".52" stop-color="#af8949"/><stop offset="1" stop-color="#b28b4a"/></linearGradient><linearGradient id="p" x1="27.331" y1="49.746" x2="37.198" y2="45.659" xlink:href="#Aq"><stop offset="0" stop-color="#9b773d"/><stop offset="1" stop-color="#bea171"/></linearGradient><linearGradient id="q" x1="42.101" y1="43.097" x2="42.1" y2="30.737" xlink:href="#Aq"><stop offset="0" stop-color="#b99926"/><stop offset="1" stop-color="#9b773d"/></linearGradient><linearGradient id="r" x1="65.444" y1="16.873" x2="79.526" y2="8.721" xlink:href="#Aq"><stop offset="0" stop-color="#ceb766"/><stop offset=".28" stop-color="#dccd94"/><stop offset=".53" stop-color="#eae1bf"/><stop offset=".76" stop-color="#dbcb91"/><stop offset="1" stop-color="#ceb766"/></linearGradient><linearGradient id="s" x1="76.971" y1="12.458" x2="92.045" y2="12.438" xlink:href="#Aq"><stop offset="0" stop-color="#eae1bf"/><stop offset=".2" stop-color="#b99926"/><stop offset=".23" stop-color="#bb9c2c"/><stop offset=".41" stop-color="#c3a845"/><stop offset=".59" stop-color="#c9b058"/><stop offset=".79" stop-color="#cdb562"/><stop offset="1" stop-color="#ceb766"/></linearGradient><linearGradient id="t" x1="94.674" y1="13.694" x2="105.577" y2="18.207" xlink:href="#Aq"><stop offset="0" stop-color="#ceb766"/><stop offset=".19" stop-color="#d7c584"/><stop offset=".4" stop-color="#dfd19d"/><stop offset=".59" stop-color="#e4d8ad"/><stop offset=".74" stop-color="#e6dbb2"/></linearGradient><linearGradient id="u" x1="104.227" y1="17.422" x2="118.219" y2="23.216" xlink:href="#Aq"><stop offset="0" stop-color="#f2e8ca"/><stop offset=".23" stop-color="#bb9649"/><stop offset="1" stop-color="#ceb766"/></linearGradient><linearGradient id="v" x1="120.155" y1="24.491" x2="128.563" y2="32.905" xlink:href="#Aq"><stop offset="0" stop-color="#ceb766"/><stop offset=".21" stop-color="#cfb969"/><stop offset=".39" stop-color="#d2be74"/><stop offset=".56" stop-color="#d8c686"/><stop offset=".73" stop-color="#e0d29f"/><stop offset=".82" stop-color="#e6dbb2"/><stop offset=".89" stop-color="#e5dab0"/><stop offset=".93" stop-color="#e3d6a7"/><stop offset=".96" stop-color="#decf99"/><stop offset=".98" stop-color="#d8c685"/><stop offset="1" stop-color="#d2bd73"/></linearGradient><linearGradient id="w" x1="127.524" y1="31.885" x2="138.268" y2="42.621" xlink:href="#Aq"><stop offset="0" stop-color="#e7d59e"/><stop offset=".08" stop-color="#cdb57d"/><stop offset=".18" stop-color="#b2935a"/><stop offset=".27" stop-color="#a17f45"/><stop offset=".32" stop-color="#9b773d"/><stop offset=".47" stop-color="#9f7c41"/><stop offset=".64" stop-color="#aa8a4d"/><stop offset=".83" stop-color="#bda260"/><stop offset="1" stop-color="#d4bf78"/></linearGradient><linearGradient id="x" x1="143.564" y1="54.385" x2="149.471" y2="68.636" xlink:href="#Aq"><stop offset="0" stop-color="#dec67b"/><stop offset=".08" stop-color="#c7ab66"/><stop offset=".18" stop-color="#af8f50"/><stop offset=".27" stop-color="#a07d42"/><stop offset=".33" stop-color="#9b773d"/><stop offset=".53" stop-color="#a07d45"/><stop offset=".84" stop-color="#ac8d5c"/><stop offset="1" stop-color="#b4976b"/></linearGradient><linearGradient id="y" x1="138.104" y1="53.664" x2="145.175" y2="46.585" xlink:href="#Aq"><stop offset="0" stop-color="#d2bd73"/><stop offset=".24" stop-color="#d8c585"/><stop offset=".7" stop-color="#e6dbb2"/><stop offset=".77" stop-color="#e2d5a6"/><stop offset=".89" stop-color="#d9c787"/><stop offset="1" stop-color="#ceb766"/></linearGradient><linearGradient id="z" x1="40.92" y1="26.85" x2="51.62" y2="16.15" xlink:href="#Aq"><stop offset="0" stop-color="#eae1bf"/><stop offset=".92" stop-color="#d8ba60"/><stop offset="1" stop-color="#d2bd73"/></linearGradient><linearGradient id="AA" x1="50.365" y1="19.717" x2="64.587" y2="13.74" xlink:href="#Aq"><stop offset="0" stop-color="#e5d8ad"/><stop offset=".37" stop-color="#c6ab4d"/><stop offset=".57" stop-color="#d3bf77"/><stop offset=".67" stop-color="#dbca8f"/><stop offset=".77" stop-color="#dac88b"/><stop offset=".87" stop-color="#d6c380"/><stop offset=".97" stop-color="#d0ba6c"/><stop offset="1" stop-color="#ceb766"/></linearGradient><linearGradient id="AB" x1="22.81" y1="30.56" x2="43.97" y2="30.56" xlink:href="#Aq"><stop offset="0" stop-color="#e6dbb2"/><stop offset=".06" stop-color="#e3d6a7"/><stop offset=".16" stop-color="#d9c88a"/><stop offset=".29" stop-color="#cbb25c"/><stop offset=".33" stop-color="#c6ab4d"/><stop offset=".43" stop-color="#c9b057"/><stop offset=".61" stop-color="#d2bd72"/><stop offset=".85" stop-color="#e0d19e"/><stop offset="1" stop-color="#eae1bf"/></linearGradient><linearGradient id="AC" x1="20.76" y1="42.83" x2="28.84" y2="34.76" xlink:href="#Aq"><stop offset="0" stop-color="#e2d5a6"/><stop offset="1" stop-color="#af8d52"/></linearGradient><linearGradient id="AD" x1="15.911" y1="57.179" x2="16.87" y2="46.151" xlink:href="#Aq"><stop offset="0" stop-color="#b99926"/><stop offset=".04" stop-color="#c5ab4c"/><stop offset=".08" stop-color="#d3be76"/><stop offset=".12" stop-color="#dbcb8f"/><stop offset=".14" stop-color="#decf99"/><stop offset=".2" stop-color="#d7c28f"/><stop offset=".27" stop-color="#d2b988"/><stop offset=".55" stop-color="#efe7cc"/><stop offset=".69" stop-color="#e9dfbb"/><stop offset=".86" stop-color="#e4d8ab"/><stop offset="1" stop-color="#e2d5a6"/></linearGradient><linearGradient id="AE" x1="9.797" y1="68.295" x2="14.11" y2="57.746" xlink:href="#Aq"><stop offset="0" stop-color="#cab159"/><stop offset="1" stop-color="#9b773d"/></linearGradient><linearGradient id="AF" x1="2.086" y1="81.515" x2="14.364" y2="93.793" xlink:href="#Aq"><stop offset="0" stop-color="#d2bd73"/><stop offset=".09" stop-color="#c3a861"/><stop offset=".19" stop-color="#b69753"/><stop offset=".32" stop-color="#ad8c49"/><stop offset=".5" stop-color="#a88544"/><stop offset="1" stop-color="#a78342"/></linearGradient><linearGradient id="AG" x1="9.389" y1="82.782" x2="9.39" y2="70.543" xlink:href="#Aq"><stop offset="0" stop-color="#cab159"/><stop offset="0" stop-color="#cbb35c"/><stop offset=".03" stop-color="#d5c17b"/><stop offset=".06" stop-color="#dccd93"/><stop offset=".09" stop-color="#e2d5a5"/><stop offset=".13" stop-color="#e5d9af"/><stop offset=".17" stop-color="#e6dbb2"/><stop offset=".33" stop-color="#e3d6a7"/><stop offset=".61" stop-color="#dac88b"/><stop offset=".97" stop-color="#cbb35c"/><stop offset="1" stop-color="#cab159"/></linearGradient><linearGradient id="AH" x1="17.684" y1="67.763" x2="28.482" y2="67.77" xlink:href="#Aq"><stop offset="0" stop-color="#bb9549"/><stop offset="1" stop-color="#9b773d"/></linearGradient><linearGradient id="AI" x1="28.355" y1="59.257" x2="28.355" y2="48.396" xlink:href="#Aq"><stop offset="0" stop-color="#e2d5a6"/><stop offset=".27" stop-color="#c9b481"/><stop offset=".58" stop-color="#b0935c"/><stop offset=".84" stop-color="#a17e45"/><stop offset="1" stop-color="#9b773d"/></linearGradient><linearGradient id="AJ" x1="20.211" y1="80.946" x2="23.122" y2="73.899" xlink:href="#Aq"><stop offset="0" stop-color="#e2d5a6"/><stop offset=".18" stop-color="#e0d1a1"/><stop offset=".41" stop-color="#d9c691"/><stop offset=".66" stop-color="#ceb577"/><stop offset=".93" stop-color="#bf9c53"/><stop offset="1" stop-color="#bb9549"/></linearGradient><radialGradient id="AK" cx="79.54" cy="83.65" fx="57.58" r="56.19" xlink:href="#Aq"><stop offset=".09" stop-color="#60bfec"/><stop offset=".55" stop-color="#217ab6"/><stop offset=".82" stop-color="#005699"/></radialGradient><radialGradient id="AL" cx="78.55" cy="83.75" fx="62.767" fy="36.795" r="58.81" xlink:href="#Aq"><stop offset=".32" stop-color="#0fb3e8"/><stop offset=".48" stop-color="#0a86b9"/><stop offset=".67" stop-color="#055283"/><stop offset=".81" stop-color="#013161"/><stop offset=".89" stop-color="#002554"/></radialGradient><radialGradient id="AM" cx="60.02" cy="64.22" r="82.88" xlink:href="#Aq"><stop offset="0" stop-color="#cdd5e9"/><stop offset=".08" stop-color="#c4cee5"/><stop offset=".49" stop-color="#9aaed2"/><stop offset=".81" stop-color="#809ac6"/><stop offset="1" stop-color="#7693c2"/></radialGradient><linearGradient id="AN" x1="34.53" y1="57.37" x2="67.27" y2="57.37" xlink:href="#Aq"><stop offset="0" stop-color="#727599"/><stop offset=".54" stop-color="#74779a"/><stop offset=".73" stop-color="#7b7d9f"/><stop offset=".87" stop-color="#8689a8"/><stop offset=".98" stop-color="#9799b4"/><stop offset="1" stop-color="#9b9db7"/></linearGradient><radialGradient id="AO" cx="60.55" cy="64.29" xlink:href="#AM"/><linearGradient id="AP" x1="79.41" y1="125.93" x2="79.41" y2="136.35" xlink:href="#Aq"><stop offset="0" stop-color="#b9bbcd"/><stop offset=".09" stop-color="#b5b7ca"/><stop offset=".66" stop-color="#9b9db7"/><stop offset="1" stop-color="#9194b0"/></linearGradient><radialGradient id="AQ" r="82.87" xlink:href="#AM"/><linearGradient id="AR" x1="72.42" y1="44.3" x2="70.48" y2="31.02" xlink:href="#Aq"><stop offset=".28" stop-color="#9b9db7"/><stop offset=".59" stop-color="#8385a6"/><stop offset=".85" stop-color="#73769b"/></linearGradient><radialGradient id="AS" xlink:href="#AM"/><radialGradient id="AT" cx="59.97" cy="65.69" r="82.24" xlink:href="#AM"/><linearGradient id="AU" x1="94.46" y1="90.05" x2="136.45" y2="68.6" xlink:href="#Aq"><stop offset=".28" stop-color="#9b9db7"/><stop offset=".68" stop-color="#8385a6"/><stop offset="1" stop-color="#73769b"/></linearGradient><linearGradient id="AV" x1="65.19" y1="72.7" x2="65.19" y2="131.33" xlink:href="#Aq"><stop offset=".28" stop-color="#60bfec"/><stop offset=".45" stop-color="#63a1cc"/><stop offset=".68" stop-color="#677ba4"/><stop offset=".8" stop-color="#696c94"/></linearGradient><linearGradient id="AW" x1="56.26" y1="72.14" x2="56.26" y2="130.78" xlink:href="#Aq"><stop offset=".28" stop-color="#9ed3f2"/><stop offset=".36" stop-color="#9cc9e8"/><stop offset=".68" stop-color="#94a3c0"/><stop offset=".85" stop-color="#9194b0"/></linearGradient><linearGradient id="AX" x1="34.47" y1="85.33" x2="85.06" y2="85.33" xlink:href="#Aq"><stop offset="0" stop-color="#8da4cd"/><stop offset=".77" stop-color="#99add2"/></linearGradient><linearGradient id="AY" x1="93.13" y1="70.74" x2="126.64" y2="61.77" xlink:href="#Aq"><stop offset="0" stop-color="#bfcae3"/><stop offset=".26" stop-color="#b8c5e0"/><stop offset=".63" stop-color="#a6b7d8"/><stop offset="1" stop-color="#8da4cd"/></linearGradient><linearGradient id="AZ" x1="87.22" y1="45.66" x2="120.66" y2="39.76" xlink:href="#Aq"><stop offset="0" stop-color="#bac6e0"/><stop offset=".28" stop-color="#b3c1dd"/><stop offset=".68" stop-color="#a1b3d5"/><stop offset="1" stop-color="#8da4cd"/></linearGradient><radialGradient id="Aa" cx="80.45" cy="84.21" fx="48.794" fy="40.284" r="54.97" xlink:href="#Aq"><stop offset=".36" stop-color="#7ad2e8"/><stop offset=".46" stop-color="#6db4d1"/><stop offset=".72" stop-color="#50739d"/><stop offset=".9" stop-color="#3e4b7c"/><stop offset="1" stop-color="#373b70"/></radialGradient><linearGradient id="Ab" x1="30.99" y1="102.71" x2="65.2" y2="67.57" xlink:href="#Aq"><stop offset="0" stop-color="#223a73" stop-opacity=".7"/><stop offset=".44" stop-color="#223a73" stop-opacity=".64"/><stop offset="1" stop-color="#223a73" stop-opacity=".5"/></linearGradient><linearGradient id="Ac" x1="71.89" y1="85.14" x2="97.68" y2="85.14" xlink:href="#Ab"/><linearGradient id="Ad" x1="120.99" y1="100.72" x2="104.27" y2="64.02" xlink:href="#Aq"><stop offset="0" stop-color="#223a73" stop-opacity=".5"/><stop offset=".56" stop-color="#223a73" stop-opacity=".64"/><stop offset="1" stop-color="#223a73" stop-opacity=".7"/></linearGradient><linearGradient id="Ae" x1="66.06" y1="84.54" x2="37.24" y2="84.54" xlink:href="#Aq"><stop offset=".09" stop-color="#bfbfbf" stop-opacity=".7"/><stop offset=".25" stop-color="#c2c2c2" stop-opacity=".72"/><stop offset=".47" stop-color="#c9c9c9" stop-opacity=".78"/><stop offset=".72" stop-color="#d5d5d5" stop-opacity=".87"/><stop offset="1" stop-color="#e6e6e6"/></linearGradient><linearGradient id="Af" x1="36.77" y1="101.44" x2="36.77" y2="100.26" xlink:href="#Aq"><stop offset="0" stop-color="#b2b2b2" stop-opacity=".7"/><stop offset=".04" stop-color="#b5b5b5" stop-opacity=".72"/><stop offset=".34" stop-color="#cacaca" stop-opacity=".84"/><stop offset=".61" stop-color="#d9d9d9" stop-opacity=".93"/><stop offset=".84" stop-color="#e3e3e3" stop-opacity=".98"/><stop offset="1" stop-color="#e6e6e6"/></linearGradient><linearGradient id="Ag" x1="107.32" y1="101.42" x2="107.32" y2="99.8" xlink:href="#Af"/><linearGradient id="Ah" x1="82.82" y1="102.74" x2="82.82" y2="83.88" xlink:href="#Af"/><linearGradient id="Ai" x1="93.35" y1="70.78" x2="76.22" y2="70.78" xlink:href="#Aq"><stop offset="0" stop-color="#bfbfbf" stop-opacity=".7"/><stop offset=".3" stop-color="#cfcfcf" stop-opacity=".82"/><stop offset=".59" stop-color="#dcdcdc" stop-opacity=".92"/><stop offset=".83" stop-color="#e3e3e3" stop-opacity=".98"/><stop offset="1" stop-color="#e6e6e6"/></linearGradient><linearGradient id="Aj" x1="120.23" y1="85.76" x2="106.85" y2="85.76" xlink:href="#Af"/><linearGradient id="Ak" x1="127.82" y1="74.14" x2="106.85" y2="74.14" xlink:href="#Af"/><path id="Al" d="M86.48 130.73a9.43 9.43 0 0 1 3.34.33 18 18 0 0 1 1.86-.64 15 15 0 0 1 5.53 1.33 16.77 16.77 0 0 1 2.46 1.25l-2.44 1.07A43.54 43.54 0 0 1 83.66 137a52.53 52.53 0 0 1-22.89-3.37 7.63 7.63 0 0 1-1.62-.68 4.07 4.07 0 0 1 3.12-1.78l2.33-.36a13.38 13.38 0 0 1 3.89.67 7.66 7.66 0 0 1 1.91.18 4.73 4.73 0 0 0 3.07-2 2.29 2.29 0 0 0 .63-1.24 3.1 3.1 0 0 1 1.84-2.22c.09 0 .33 0 .22.3a11.29 11.29 0 0 0-.58 1.4.93.93 0 0 0 .2.8 6.08 6.08 0 0 1 .65 2 3.57 3.57 0 0 0 2.73 1.39c.78 0 1.41.28 2.12.37.2 0 .45.06.58-.07z"/><path id="Am" d="M75.14 39.4a3.92 3.92 0 0 1 .26-.85 1.48 1.48 0 0 0 .21-1.33 1.8 1.8 0 0 0-.36-.52c-.41-.28-1-.5-1.22-1a3.88 3.88 0 0 1 .52-1.28 3.51 3.51 0 0 1-1.77-1.81.23.23 0 0 0-.32-.15c-.2-.18 0-.42.07-.64A1.53 1.53 0 0 1 72 32l-.13.1-2.36.3a1.55 1.55 0 0 1-1.13.15.41.41 0 0 0-.36.11 6.31 6.31 0 0 0-1.09 2.48c0 .06-.09.33.12.22.16.12.2.34.38.41s.55 0 .68 0 .35 0 .31.16a1.44 1.44 0 0 1-.33.74 2.08 2.08 0 0 0-.27 1.92 1.82 1.82 0 0 1 .07 1.2 1.24 1.24 0 0 0 0 .87 8.64 8.64 0 0 0 .66 1A2.86 2.86 0 0 0 69.67 43l2.93.93a.4.4 0 0 0 .39-.19l.81-1.31a16.42 16.42 0 0 0 1.34-3.03z"/><path id="An" d="M55,72.17a3.33,3.33,0,0,0-1.6-.09l-.18.07A2.61,2.61,0,0,0,52,73.45a1.11,1.11,0,0,0,1.19.7L57,73.6c.95.16,1.72.45,2.59.67a1.38,1.38,0,0,0,.56-.06c.17,0,.38-.17.35-.35a1.61,1.61,0,0,0-.68-1.08c-.76-.22-1.68-.33-2.47-.62Z"/><path id="Ao" d="M62.54 73.59v.8l-1.78.39 1.39.4h2.18l1.59.6-1-1.59-.79-.99-1.59.39z"/><path id="Ap" d="M132.61 78.88a65.43 65.43 0 0 0-1.11-7.36 95.06 95.06 0 0 0-3.26-9.91c-1.11-2.39-2.71-5-2.71-5l-.73.15s.36 1.17-.74.93-3.77-1.55-3.92-.85a4 4 0 0 0 .22 1.94c.15.46 1.18 1.62.15 1.39l-2.44-.46a3 3 0 0 0-2.51-1.24c-1.62.07-3-.16-3.18-1s-1.18-2.17-5.17-2.4a6.57 6.57 0 0 0-5.76 2.32s-1.18 1.78-2.36 1.94-2.37.08-2.88.23h0a8.24 8.24 0 0 0-.7 3.1 6.34 6.34 0 0 0-1 3.29l-.56 3.79a19.51 19.51 0 0 0-.07 3.26 2.88 2.88 0 0 0 1.82 2.69l.72.74c.4.54.63 1.24 1 1.77.74 1 1.46 2.1 3 2.24a8.22 8.22 0 0 0 3.2-.43 6.28 6.28 0 0 0 2.87-.71c1.15-.34 2-1 3.47-1a1.51 1.51 0 0 1 .6.22c1 .47 1.27 1.69 1.59 2.84a4 4 0 0 0 1.17 2.56 29.43 29.43 0 0 1 1.06 4.28c.21.87.56 2.19 0 2.9a1.9 1.9 0 0 0-.42 1.43l1.48 3.47a7.78 7.78 0 0 1-.51 2.46 29.29 29.29 0 0 0 .57 4.61 16 16 0 0 1-.66 2.75.69.69 0 0 0 .32.8l5.69-.53a2 2 0 0 0 1.09-.36 5.64 5.64 0 0 1 2-2.6 5.07 5.07 0 0 1 1-2.1c.48-.51 1.13-.84 1.61-1.36.34-1.14.44-2.49.86-3.48s4.81-5.12 4.81-5.12a47 47 0 0 0 .39-12.19z"/><linearGradient id="Aq" gradientUnits="userSpaceOnUse"/></defs><g class="A"><g><path d="M497.32 90.9c0 2.3 0 2.62-1.21 2.78l-.68.09a.57.57 0 0 0 .07.8l3-.1 2.9.1a.56.56 0 0 0 .07-.8l-.58-.09c-1.15-.2-1.21-.48-1.21-2.78V86a2.65 2.65 0 0 1 .48-1.91 3.46 3.46 0 0 1 2.71-1.09c2.17 0 3 1.34 3 3.16v4.74c0 2.3 0 2.58-1.21 2.78l-.61.09a.56.56 0 0 0 .07.8l3-.1 3 .1a.57.57 0 0 0 .06-.8l-.7-.09c-1.15-.16-1.22-.48-1.22-2.78v-5.49c0-2.14-1.08-4-3.73-4a8.75 8.75 0 0 0-4.53 1.67.34.34 0 0 1-.35-.35l.06-1.5a.36.36 0 0 0-.35-.22 17.45 17.45 0 0 1-3.19 1.56c-.16.09-.16.44 0 .57l.29.19c.86.58.86.74.86 2zm-5.72-2.33c0 2.46-.86 5.4-3.67 5.4s-4.12-3.13-4.12-6c0-3.51 1.57-5.52 3.68-5.52 3 0 4.11 3.45 4.11 6.16m-3.73-7.12a6.71 6.71 0 0 0-6.8 6.9 6.3 6.3 0 0 0 6.54 6.57 6.52 6.52 0 0 0 6.74-6.86 6.38 6.38 0 0 0-6.48-6.61m-11.3-6.89a1.65 1.65 0 0 0-1.72 1.72 1.66 1.66 0 0 0 3.31-.06 1.59 1.59 0 0 0-1.59-1.66m-1.05 16.3c0 2.3 0 2.62-1.22 2.78l-.67.09a.56.56 0 0 0 .07.8l3-.1 3 .1a.56.56 0 0 0 .07-.8l-.67-.09c-1.15-.16-1.22-.48-1.22-2.78v-5.75l.13-4a.3.3 0 0 0-.32-.19 22.24 22.24 0 0 1-3.28 1.57c-.16.09-.16.44 0 .57l.29.19c.86.58.86.74.86 2zm-3.58-7.66a1 1 0 0 0 0-1.34h-3.54c-.54 0-.57 0-.57-.61v-1.43a.58.58 0 0 0-.67-.16 8 8 0 0 1-1.34 1.88 6.39 6.39 0 0 1-2 1 .53.53 0 0 0 .09.67h.9c.64 0 .67.06.67.92v7.31c0 1.92.57 3.45 3.31 3.45a4.44 4.44 0 0 0 3.35-1.46c.07-.2-.06-.55-.31-.55s-.52.35-.8.45a2.39 2.39 0 0 1-.86.16c-2.11 0-2.34-1.69-2.34-3.55V84c0-.67 0-.76.58-.76zm-18 8.33c0-1.24.93-1.72 2.81-2.36a6.24 6.24 0 0 1 1.31-.32c.19 0 .32.06.32.41l-.06 1.89c0 .67 0 1.12-.42 1.5a3.61 3.61 0 0 1-1.95.8 1.92 1.92 0 0 1-2-1.92m.19-2.33c-2 .73-2.64 1.47-2.64 2.72a3 3 0 0 0 1 2.23 3.37 3.37 0 0 0 2.24.73 4.67 4.67 0 0 0 2.3-.8 5.27 5.27 0 0 1 1.24-.63c.2 0 .39.25.52.44a2.51 2.51 0 0 0 2.07 1 3.35 3.35 0 0 0 2.68-1.4c0-.22-.1-.41-.23-.41a1.28 1.28 0 0 0-.41.22 1.92 1.92 0 0 1-.8.19c-1.24 0-1.53-1.31-1.47-2.78l.19-5.55c.1-2.4-1-3.74-3.31-3.74s-5.94 2.27-5.94 3.93a.4.4 0 0 0 .45.44 3.42 3.42 0 0 0 1.81-.6c.26-.19.29-.58.32-1.09.07-1 1.15-1.44 2.05-1.44 2 0 2.36 1.6 2.33 2.78v1.47c0 .48-.07.77-.54.93zm-8.84 2.08a2 2 0 0 1-.3 1.18 3.92 3.92 0 0 1-2.46.89c-3.13 0-4.76-2.75-4.76-5.65s1.5-5.3 4.41-5.3a3.32 3.32 0 0 1 2.68 1.34 1.85 1.85 0 0 1 .35 1.25zm2.36-15.52l.1-4a.37.37 0 0 0-.32-.19A22 22 0 0 1 444 73a.49.49 0 0 0 0 .64l.31.19c1 .58 1 .77 1 2.65v4.82c0 .26 0 .45-.19.45a6.44 6.44 0 0 0-2.14-.29c-4.34 0-7.72 2.87-7.72 7.34a5.86 5.86 0 0 0 5.9 6.13 6.72 6.72 0 0 0 4-1.46h.12a3.14 3.14 0 0 1 .07 1V95c0 .16.16.26.35.26a23.86 23.86 0 0 1 4.21-1c.29-.16.25-1 0-1a5.21 5.21 0 0 1-1.37.32c-.9 0-.93-1.18-.93-3.71zm-25.93 15.1c0 2.3 0 2.62-1.22 2.78l-.67.09a.56.56 0 0 0 .07.8c.89-.06 1.85-.1 3-.1s2 0 2.9.1a.56.56 0 0 0 .06-.8l-.57-.09c-1.15-.2-1.22-.48-1.22-2.78V86a2.66 2.66 0 0 1 .49-1.91 3.46 3.46 0 0 1 2.71-1.09c2.17 0 3 1.34 3 3.16v4.74c0 2.3 0 2.58-1.21 2.78l-.61.09a.56.56 0 0 0 .07.8 42.27 42.27 0 0 1 3-.1c1.18 0 2 0 3 .1a.56.56 0 0 0 .06-.8l-.7-.09c-1.15-.16-1.21-.48-1.21-2.78v-5.49c0-2.14-1.08-4-3.73-4a8.75 8.75 0 0 0-4.47 1.63.34.34 0 0 1-.36-.35 14.48 14.48 0 0 1 .07-1.5.37.37 0 0 0-.35-.22 17.77 17.77 0 0 1-3.19 1.56c-.16.09-.16.44 0 .57l.28.19c.87.58.87.74.87 2zM408 84.45a22.2 22.2 0 0 1 .1-2.77c0-.13-.13-.19-.32-.23a11 11 0 0 1-3.41.58.48.48 0 0 0-.07.7l.39.16c1 .41 1 .7 1 2.71v5.33c0 2.59 1.05 4 3.86 4a8.28 8.28 0 0 0 4.4-1.66c.2 0 .29.16.29.45V95a.45.45 0 0 0 .38.22 16.72 16.72 0 0 1 4.18-1.18c.26-.13.22-.76 0-.92a6.39 6.39 0 0 1-1.24.16c-.9 0-1-1-1-3.48v-5.35c0-1.18 0-2.17.09-2.77 0-.13-.12-.19-.28-.23a12.63 12.63 0 0 1-3.73.58.43.43 0 0 0 0 .7l.42.16c1 .38 1.18.45 1.18 2.52v5.24a2.2 2.2 0 0 1-.64 1.85 4.15 4.15 0 0 1-2.59 1c-2.42 0-3-1.47-3-3.67zm-7.65 4.12c0 2.46-.87 5.4-3.68 5.4s-4.12-3.13-4.12-6c0-3.51 1.57-5.52 3.68-5.52 3 0 4.12 3.45 4.12 6.16m-3.74-7.12a6.71 6.71 0 0 0-6.8 6.9 6.3 6.3 0 0 0 6.54 6.57 6.52 6.52 0 0 0 6.74-6.86 6.37 6.37 0 0 0-6.48-6.61m-16.79-5.78c0-1.21 0-1.28 1-1.28h1.95a13.1 13.1 0 0 1 3.1.2c1.6.41 2 1.59 2.24 3a.56.56 0 0 0 .76-.1c-.06-1.21-.1-2.74-.1-4.21a41.16 41.16 0 0 1-4.3.1h-5.97c-1.27 0-2.36 0-3.7-.1-.19.1-.26.67-.06.8l.51.06c1.85.23 1.91.68 1.91 4v11.5c0 3.36-.06 3.77-1.91 4l-.8.09a.63.63 0 0 0 .06.8c1.5-.06 2.59-.1 4-.1s2.36 0 4.25.1a.63.63 0 0 0 .06-.8l-1.09-.09c-1.88-.16-1.94-.64-1.94-4v-4.43c0-.83.09-.86 1.05-.86H383a10.65 10.65 0 0 1 2.46.16 1.51 1.51 0 0 1 1 1.21l.34 1.24c.23.19.71.19.83 0 0-.73-.13-1.94-.13-3.09s.13-2.46.13-3.22a.67.67 0 0 0-.83 0l-.28 1.31c-.2.83-.45 1-.8 1.12a12 12 0 0 1-2.72.19h-2.17c-1 0-1.05 0-1.05-.86zm-21.55 9.68c-.22 0-.22-.1-.22-.16 0-1.06 1.66-2.78 3.54-2.78s2.46 1.12 2.46 2c0 .42-.1.54-.19.61-.26.19-1 .32-3.32.32zm6.19 1c1.34 0 1.79 0 1.89-.22a2.08 2.08 0 0 0 .12-.83c0-1.92-1.78-3.8-4.53-3.8-3.83 0-6.41 3.29-6.41 7.22a6.83 6.83 0 0 0 1.33 4.15 5.75 5.75 0 0 0 4.64 2.1 5.59 5.59 0 0 0 5-3 .43.43 0 0 0-.58-.39 3.43 3.43 0 0 1-2.92 1.52c-3.42 0-5.31-2.75-5.31-6 0-.8 0-.86.87-.86zm-13.95-4.85c-5.3 0-7.72 3.67-7.72 7.12a6.37 6.37 0 0 0 1.85 4.73 6.2 6.2 0 0 0 4.36 1.53 5.81 5.81 0 0 0 5.33-3.25.5.5 0 0 0-.57-.45 3.9 3.9 0 0 1-3.55 1.92 5.25 5.25 0 0 1-5.21-5.46c0-3.39 2.18-5.15 4.41-5.15a4.32 4.32 0 0 1 3.19 1.7.56.56 0 0 0 .45.22c.38 0 .7-.61.7-1.18a1.81 1.81 0 0 0-.48-1.28 8 8 0 0 0-2.84-.54m-21.18 9.45c0 2.3 0 2.62-1.22 2.78l-.67.09a.56.56 0 0 0 .07.8c.89-.06 1.85-.1 3-.1s2 0 2.9.1a.56.56 0 0 0 .06-.8l-.57-.09c-1.15-.2-1.21-.48-1.21-2.78V86a2.7 2.7 0 0 1 .47-1.91A3.48 3.48 0 0 1 334.8 83c2.17 0 3 1.34 3 3.16v4.74c0 2.3 0 2.58-1.21 2.78l-.61.09a.56.56 0 0 0 .07.8c.86-.06 1.81-.1 3-.1s2 0 3 .1a.56.56 0 0 0 .07-.8l-.71-.09c-1.15-.16-1.21-.48-1.21-2.78v-5.49c0-2.14-1.08-4-3.73-4a8.75 8.75 0 0 0-4.47 1.67.33.33 0 0 1-.35-.35c0-.29 0-.77.06-1.5a.36.36 0 0 0-.35-.22 17.77 17.77 0 0 1-3.19 1.56c-.16.09-.16.44 0 .57l.28.19c.87.58.87.74.87 2zM318 85.35c-.22 0-.22-.1-.22-.16 0-1.06 1.66-2.78 3.55-2.78s2.46 1.12 2.46 2c0 .42-.1.54-.2.61s-.95.32-3.32.32zm6.2 1c1.34 0 1.78 0 1.88-.22a2 2 0 0 0 .13-.83c0-1.92-1.79-3.8-4.53-3.8-3.84 0-6.42 3.29-6.42 7.22a6.78 6.78 0 0 0 1.34 4.15 5.73 5.73 0 0 0 4.63 2.1 5.58 5.58 0 0 0 5-3 .42.42 0 0 0-.57-.39 3.43 3.43 0 0 1-2.94 1.57c-3.42 0-5.3-2.75-5.3-6 0-.8 0-.86.86-.86zm-13.47-11.79a1.65 1.65 0 0 0-1.73 1.72 1.66 1.66 0 0 0 3.31-.06 1.59 1.59 0 0 0-1.59-1.66m-1.04 16.34c0 2.3 0 2.62-1.21 2.78l-.67.09a.56.56 0 0 0 .06.8c.89-.06 1.85-.1 3-.1s2 0 3 .1a.57.57 0 0 0 .06-.8l-.67-.09c-1.15-.16-1.21-.48-1.21-2.78v-5.75c0-1.31.06-2.84.12-4a.3.3 0 0 0-.32-.19 21.77 21.77 0 0 1-3.28 1.57c-.16.09-.16.44 0 .57l.29.19c.86.58.86.74.86 2zm-7-9.45c-5.3 0-7.72 3.67-7.72 7.12a6.37 6.37 0 0 0 1.85 4.73 6.19 6.19 0 0 0 4.37 1.62 5.81 5.81 0 0 0 5.33-3.25.5.5 0 0 0-.57-.45 3.9 3.9 0 0 1-3.55 1.92 5.25 5.25 0 0 1-5.14-5.46c0-3.39 2.17-5.15 4.41-5.15a4.32 4.32 0 0 1 3.19 1.7.56.56 0 0 0 .45.22c.38 0 .7-.61.7-1.18a1.81 1.81 0 0 0-.48-1.28 8 8 0 0 0-2.84-.54m-9.42 7.63c0-3-2-4.88-4-6.13l-2.56-1.59c-1.18-.74-2.71-2.08-2.71-3.93 0-1.47.67-3.55 3.8-3.55s3.92 2.08 4.34 3.61a.61.61 0 0 0 .79-.1 13.93 13.93 0 0 0-.57-3.89 4.14 4.14 0 0 1-1.11-.19 12.53 12.53 0 0 0-3-.41c-4.16 0-6.51 2.45-6.51 5.49 0 2.61 1.84 4.43 3.44 5.49l3 2c2.34 1.5 2.62 3.06 2.62 4.47a3.63 3.63 0 0 1-4 3.67c-3.7 0-5-3.13-5.49-4.76-.12-.19-.6-.13-.76.1a14.72 14.72 0 0 0 .86 4.47 10 10 0 0 0 5 1.17c4.15 0 6.79-2.39 6.79-5.9M270.5 75.8c0-1.4.07-3 .1-4a.36.36 0 0 0-.32-.19 21.65 21.65 0 0 1-3.44 1.39.49.49 0 0 0 0 .64l.32.19c1 .58 1 .77 1 2.65V90.9c0 2.3 0 2.62-1.22 2.78l-.73.09a.57.57 0 0 0 .06.8c1-.06 1.92-.1 3.07-.1s2 0 3.09.1a.56.56 0 0 0 .06-.8l-.76-.09c-1.15-.16-1.22-.48-1.22-2.78zm-15.13 15.77c0-1.24.93-1.72 2.81-2.36a6.15 6.15 0 0 1 1.32-.32c.19 0 .32.06.32.41l-.07 1.89c0 .67 0 1.12-.41 1.5a3.65 3.65 0 0 1-1.95.8 1.93 1.93 0 0 1-2-1.92m.19-2.33c-2 .73-2.64 1.47-2.64 2.72a3 3 0 0 0 1 2.23 3.32 3.32 0 0 0 2.23.73 4.63 4.63 0 0 0 2.3-.8 5.09 5.09 0 0 1 1.25-.63c.19 0 .38.25.51.44a2.51 2.51 0 0 0 2.07 1 3.35 3.35 0 0 0 2.68-1.4c0-.22-.1-.41-.22-.41a1.21 1.21 0 0 0-.42.22 1.92 1.92 0 0 1-.8.19c-1.24 0-1.53-1.31-1.47-2.78l.2-5.55c.09-2.4-1-3.74-3.32-3.74S253 83.72 253 85.38a.4.4 0 0 0 .45.44 3.45 3.45 0 0 0 1.82-.6c.25-.19.28-.58.31-1.09.07-1 1.16-1.44 2.05-1.44 2 0 2.36 1.6 2.33 2.78v1.47c0 .48-.06.77-.54.93zm-16.77 1.66c0 2.3 0 2.62-1.21 2.78l-.67.09a.56.56 0 0 0 .06.8c.89-.06 1.85-.1 3-.1s2 0 2.9.1a.56.56 0 0 0 .07-.8l-.58-.09c-1.15-.2-1.21-.48-1.21-2.78V86a2.65 2.65 0 0 1 .48-1.91 3.47 3.47 0 0 1 2.71-1.09c2.18 0 3 1.34 3 3.16v4.74c0 2.3 0 2.58-1.22 2.78l-.6.09a.56.56 0 0 0 .06.8 42.27 42.27 0 0 1 3-.1c1.18 0 2 0 3 .1a.56.56 0 0 0 .07-.8l-.7-.09c-1.15-.16-1.22-.48-1.22-2.78v-5.49c0-2.14-1.08-4-3.73-4a8.75 8.75 0 0 0-4.47 1.63.33.33 0 0 1-.35-.35c0-.29 0-.77.06-1.5a.36.36 0 0 0-.35-.22 17.45 17.45 0 0 1-3.19 1.56c-.16.09-.16.44 0 .57l.29.19c.86.58.86.74.86 2zm-5.71-2.33c0 2.46-.87 5.4-3.68 5.4s-4.12-3.13-4.12-6c0-3.51 1.57-5.52 3.67-5.52 3 0 4.13 3.45 4.13 6.16m-3.74-7.12a6.71 6.71 0 0 0-6.8 6.9 6.3 6.3 0 0 0 6.54 6.57 6.52 6.52 0 0 0 6.74-6.86 6.37 6.37 0 0 0-6.48-6.61m-11.3-6.89a1.65 1.65 0 0 0-1.72 1.72 1.66 1.66 0 0 0 3.31-.06 1.59 1.59 0 0 0-1.59-1.66M217 90.9c0 2.3 0 2.62-1.22 2.78l-.67.09a.56.56 0 0 0 .07.8c.89-.06 1.85-.1 3-.1s2 0 3 .1a.57.57 0 0 0 .06-.8l-.67-.09c-1.15-.16-1.21-.48-1.21-2.78v-5.75c0-1.31.06-2.84.12-4a.3.3 0 0 0-.32-.19 22.24 22.24 0 0 1-3.28 1.57c-.16.09-.16.44 0 .57l.28.19c.87.58.87.74.87 2zm-3.58-7.66a1 1 0 0 0 0-1.34h-3.55c-.54 0-.57 0-.57-.61v-1.43a.58.58 0 0 0-.67-.16 8 8 0 0 1-1.34 1.88 6.39 6.39 0 0 1-2 1 .53.53 0 0 0 .09.67h.9c.63 0 .67.06.67.92v7.31c0 1.92.57 3.45 3.31 3.45a4.48 4.48 0 0 0 3.36-1.46c.06-.2-.07-.55-.32-.55s-.51.35-.8.45a2.35 2.35 0 0 1-.86.16c-2.11 0-2.33-1.69-2.33-3.55V84c0-.67 0-.76.57-.76zm-18 8.33c0-1.24.93-1.72 2.81-2.36a6.24 6.24 0 0 1 1.31-.32c.19 0 .32.06.32.41l-.06 1.89c0 .67 0 1.12-.42 1.5a3.61 3.61 0 0 1-1.94.8 1.92 1.92 0 0 1-2-1.92m.19-2.33c-2 .73-2.64 1.47-2.64 2.72a3 3 0 0 0 1 2.23 3.32 3.32 0 0 0 2.23.73 4.67 4.67 0 0 0 2.3-.8 5.27 5.27 0 0 1 1.24-.63c.2 0 .39.25.51.44a2.54 2.54 0 0 0 2.08 1 3.35 3.35 0 0 0 2.68-1.4c0-.22-.1-.41-.22-.41a1.21 1.21 0 0 0-.42.22 1.92 1.92 0 0 1-.8.19c-1.24 0-1.53-1.31-1.47-2.78l.2-5.55c.09-2.4-1-3.74-3.32-3.74s-6 2.26-6 3.92a.4.4 0 0 0 .45.44 3.39 3.39 0 0 0 1.81-.6c.26-.19.29-.58.32-1.09.07-1 1.15-1.44 2-1.44 2 0 2.36 1.6 2.33 2.78v1.47c0 .48-.07.77-.55.93zm-5.9-7.82c0-1.47-.07-5.43.48-6.58.12-.25.76-.51 1.78-.67l.45-.06a.57.57 0 0 0-.06-.8c-1.09.07-1.92.09-3.29.09-1.21 0-2.3 0-3.77-.09-.25.1-.28.61-.06.8l.54.06c1.28.16 1.79.35 2 .64.6 1 .63 5.11.63 6.61v6.83a3.41 3.41 0 0 1-.12 1.34h-.07c-1.5-1.53-3.07-3.32-5.27-5.78l-3.09-3.48c-1.06-1.18-4.83-5.39-5.47-7a9.37 9.37 0 0 1-1.46.09c-.57 0-2.27 0-3.61-.09a.57.57 0 0 0-.06.8l.54.06a3.47 3.47 0 0 1 2 .77 2.91 2.91 0 0 1 .7 2.29v9.23c0 1.53 0 5.43-.41 6.58-.16.35-.67.54-1.41.64l-.86.09a.59.59 0 0 0 .07.8c1.11-.06 2-.1 3.31-.1s2.3 0 3.74.1a.59.59 0 0 0 .06-.8l-1-.09c-.8-.07-1.44-.26-1.63-.61-.54-1-.57-5.11-.57-6.61v-7a7.93 7.93 0 0 1 .16-2.07h.02c.67.7 2.84 3.32 3.7 4.31l7.41 8.42c2.78 3.16 3.71 4.28 4.09 4.82a.57.57 0 0 0 .6-.35c-.09-.83-.09-4.63-.09-5.58z"/><path d="M145.7 76.81a83.56 83.56 0 0 1-10.81 11.36l1.63-.31c1.43-.14 3-.28 4 .84a8 8 0 0 1 .76 4.8c-.19 1.87-.31 6-2.06 8.08s-4.37 0-5.87-.76l-7.58-5.74-2.23 1.43a43.23 43.23 0 0 1 5.66 6.54c.09 2.16-2.54 1.38-3.81 2.06a37.92 37.92 0 0 1-7.2.12l-1.59 2.63a59.25 59.25 0 0 1 14.09 1.42c1.37.42 2.86.89 3.39 2.32.33 2.27-1.49 5.57-3.81 9.1-.66 1-1.54 2.23-2.53 2.56-2.61.88-4-1.66-5.13-3-2.36-3.9-4.9-7.62-6.37-11.9q-.87 1.29-1.83 2.52a42.82 42.82 0 0 1 3.51 9.85c-.75 2-2.87.3-4.31.45a37 37 0 0 1-6.78-2.69c-.8.64-1.63 1.24-2.48 1.82a59.46 59.46 0 0 1 12.56 6.75c1.11.91 2.31 1.91 2.25 3.44-.35 1.37-1.29 3.28-4.48 5.29-1.71 1.11-3.74 2.69-6 2.46s-2.75-2.72-3.27-4.33c-.69-4.52-1.61-8.94-1.32-13.47a45.33 45.33 0 0 1-2.66 1.65 43.15 43.15 0 0 1-.53 10.46c-1.47 1.59-2.77-.82-4.15-1.24a37.46 37.46 0 0 1-5.22-5.05 46.73 46.73 0 0 1-3 .73 59.38 59.38 0 0 1 9 11c.68 1.26 1.41 2.65.77 4a6.44 6.44 0 0 1-3.3 2.6c-1.11.4-6.2 1.19-6.34 1.21a5.48 5.48 0 0 1-3-.28c-1.46-.53-1.51-3.79-1.37-5.48a50.26 50.26 0 0 1 3.91-12.92c-1 .21-2 .37-3.07.51a42.92 42.92 0 0 1-4.49 9.43c-2 .9-2.24-1.83-3.36-2.73a38.55 38.55 0 0 1-2.88-6.65 44.39 44.39 0 0 1-3-.46 59.12 59.12 0 0 1 4.08 13.6c.14 1.43.29 3-.83 4-1 .6-4.83.61-8.25-.11-2.61-.55-5.08-1.69-5.42-2.29-.78-1.39.51-3.44 1.29-4.94 2.69-3.66 5.14-7.41 8.51-10.4a40.8 40.8 0 0 1-3-.72 43 43 0 0 1-7.72 7c-2.16.08-1.38-2.54-2.07-3.81a37.5 37.5 0 0 1-.11-7.24c-.9-.51-1.77-1-2.63-1.61a59.21 59.21 0 0 1-1.43 14.14c-.41 1.38-.88 2.87-2.31 3.4s-2.84-.28-4.27-.93c-.31-.15-5.4-3.39-7-5.37-2.12-2.55 1.66-4 3-5.13 3.86-2.33 7.55-4.85 11.78-6.32a45.9 45.9 0 0 1-2.51-1.82 43.52 43.52 0 0 1-9.75 3.46c-2-.75-.3-2.88-.45-4.31a39.42 39.42 0 0 1 2.63-6.67c-.63-.8-1.24-1.62-1.81-2.46a59.47 59.47 0 0 1-6.7 12.43c-.91 1.11-1.91 2.31-3.43 2.24-1.95-.49-3.69-2.94-5.06-4.62-1.21-1.88-2.62-3.26-3.17-5.73s2.76-3.24 4.68-3.61c4.45-.68 8.8-1.59 13.26-1.34-.57-.86-1.11-1.73-1.61-2.63a43.32 43.32 0 0 1-10.29-.54c-1.59-1.47.83-2.77 1.24-4.15 1.27-1.43 2.45-2.89 3.76-4.13-.74-.45-1.47-.91-2.2-1.39a59.91 59.91 0 0 1-8.26 6.31c-1.26.68-2.65 1.4-4 .77-1.5-1.13-2.33-3.41-2.94-5.41-.67-2.44-1.36-4.37-.63-7.22s4-1.69 5.71-1.55l1.1.27a84.2 84.2 0 0 1-11.1-11.63l-.12.28C10.59 81 6.57 82 2.29 81.81v3.82c4.8-.28 9.75 1.37 12 6.28.22.56.42 1.12.62 1.69 1.21 5 1.08 7.26.88 9.43-.89 4.63-4.24 7.07-8.25 8.58.47 1.18 1 2.57 1.45 3.54 4.33-2.09 9.53-2.47 13.45 1.23q1.38 1.45 2.67 3a14.65 14.65 0 0 1 3.06 6.76c.94 4.61-1.21 8.15-4.34 11.08l2.69 2.71c3.2-3.59 7.87-5.93 12.9-4a42 42 0 0 1 6.57 4.48c.78.76 1.52 1.51 2.2 2.22 2.64 3.9 2 8 .24 11.89l3.52 1.49c1.58-4.55 5-8.49 10.38-8.65a19.24 19.24 0 0 1 6.84 1.14 39.46 39.46 0 0 1 4.11 1.68c3.93 2.6 4.91 6.62 4.77 10.9h3.82c-.28-4.8 1.37-9.75 6.28-12a33.33 33.33 0 0 1 11-1.58c4.62.89 7.06 4.24 8.57 8.25l3.54-1.45c-2.09-4.33-2.47-9.53 1.23-13.45 2-2 7.49-4.83 9.49-5.6 4.61-.95 8.15 1.2 11.08 4.33l2.72-2.69c-3.59-3.19-5.93-7.86-4-12.89.63-1.4 4.48-6.75 4.74-7.14l2-2c3.9-2.64 8-2 11.9-.24l1.48-3.53c-4.54-1.57-8.49-5-8.65-10.37a23.14 23.14 0 0 1 2.66-10.69c2.59-3.93 6.61-4.91 10.9-4.77v-3.83c-4.27.33-8.63-.93-11.11-4.62z" fill="url(#A)"/><path class="C" d="M145.7 76.81a83.56 83.56 0 0 1-10.81 11.36l1.63-.31c1.43-.14 3-.28 4 .84a8 8 0 0 1 .76 4.8c-.19 1.87-.31 6-2.06 8.08s-4.37 0-5.87-.76l-7.58-5.74-2.23 1.43a43.23 43.23 0 0 1 5.66 6.54c.09 2.16-2.54 1.38-3.81 2.06a37.92 37.92 0 0 1-7.2.12l-1.59 2.63a57.85 57.85 0 0 1 10.82.79q1.63.27 3.27.63c1.37.42 2.86.89 3.39 2.32.33 2.27-1.49 5.57-3.81 9.1-.66 1-1.54 2.23-2.53 2.56-2.61.88-4-1.66-5.13-3l-1.41-2.3a48.52 48.52 0 0 1-5-9.6q-.87 1.29-1.83 2.52a42.82 42.82 0 0 1 3.51 9.85c-.75 2-2.87.3-4.31.45a37 37 0 0 1-6.78-2.69l-2.48 1.82a59.46 59.46 0 0 1 12.56 6.75c1.11.91 2.31 1.91 2.25 3.44-.35 1.37-1.29 3.28-4.48 5.29-1.71 1.11-3.74 2.69-6 2.46s-2.75-2.72-3.27-4.33c-.69-4.52-1.61-8.94-1.32-13.47a45.33 45.33 0 0 1-2.66 1.65 43.15 43.15 0 0 1-.53 10.46c-1.47 1.59-2.77-.82-4.15-1.24a37.46 37.46 0 0 1-5.22-5.05 46.73 46.73 0 0 1-3 .73 59.38 59.38 0 0 1 9 11c.68 1.26 1.41 2.65.77 4a6.44 6.44 0 0 1-3.26 2.6c-1.11.4-6.2 1.19-6.34 1.21a5.48 5.48 0 0 1-3-.28c-1.46-.53-1.51-3.79-1.37-5.48a50.26 50.26 0 0 1 3.91-12.92c-1 .21-2 .37-3.07.51a42.92 42.92 0 0 1-4.49 9.43c-2 .9-2.24-1.83-3.36-2.73a38.55 38.55 0 0 1-2.88-6.65 44.39 44.39 0 0 1-3-.46 59.12 59.12 0 0 1 4.08 13.6c.14 1.43.29 3-.83 4-1 .6-4.83.61-8.25-.11-2.61-.55-5.08-1.69-5.42-2.29-.78-1.39.51-3.44 1.29-4.94 2.69-3.66 5.14-7.41 8.51-10.4a40.8 40.8 0 0 1-3-.72 43 43 0 0 1-7.72 7c-2.16.08-1.38-2.54-2.07-3.81a37.5 37.5 0 0 1-.11-7.24c-.9-.51-1.77-1-2.63-1.61a59.21 59.21 0 0 1-1.43 14.14c-.41 1.38-.88 2.87-2.31 3.4s-2.84-.28-4.27-.93c-.31-.15-5.4-3.39-7-5.37-2.12-2.55 1.66-4 3-5.13 3.86-2.33 7.55-4.85 11.78-6.32a45.9 45.9 0 0 1-2.51-1.82 43.52 43.52 0 0 1-9.75 3.46c-2-.75-.3-2.88-.45-4.31a39.42 39.42 0 0 1 2.63-6.67c-.63-.8-1.24-1.62-1.81-2.46a59.47 59.47 0 0 1-6.7 12.43c-.91 1.11-1.91 2.31-3.43 2.24-1.95-.49-3.69-2.94-5.06-4.62-1.21-1.88-2.62-3.26-3.17-5.73s2.76-3.24 4.68-3.61c4.45-.68 8.8-1.59 13.26-1.34-.57-.86-1.11-1.73-1.61-2.63a43.32 43.32 0 0 1-10.29-.54c-1.59-1.47.83-2.77 1.24-4.15 1.27-1.43 2.45-2.89 3.76-4.13-.74-.45-1.47-.91-2.2-1.39a59.91 59.91 0 0 1-8.26 6.31c-1.26.68-2.65 1.4-4 .77-1.5-1.13-2.33-3.41-2.94-5.41-.67-2.44-1.36-4.37-.63-7.22s4-1.69 5.71-1.55l1.1.27a84.2 84.2 0 0 1-11.1-11.63l-.12.28C10.59 81 6.57 82 2.29 81.81v3.82c4.8-.28 9.75 1.37 12 6.28.22.56.42 1.12.62 1.69 1.21 5 1.08 7.26.88 9.43-.89 4.63-4.24 7.07-8.25 8.58.47 1.18 1 2.57 1.45 3.54 4.33-2.09 9.53-2.47 13.45 1.23q1.38 1.45 2.67 3a14.65 14.65 0 0 1 3.06 6.76c.94 4.61-1.21 8.15-4.34 11.08l2.69 2.71c3.2-3.59 7.87-5.93 12.9-4a42 42 0 0 1 6.57 4.48c.78.76 1.52 1.51 2.2 2.22 2.64 3.9 2 8 .24 11.89l3.52 1.49c1.58-4.55 5-8.49 10.38-8.65a19.24 19.24 0 0 1 6.84 1.14 39.46 39.46 0 0 1 4.11 1.68c3.93 2.6 4.91 6.62 4.77 10.9h3.82c-.28-4.8 1.37-9.75 6.28-12a33.33 33.33 0 0 1 11-1.58c4.62.89 7.06 4.24 8.57 8.25l3.54-1.45c-2.09-4.33-2.47-9.53 1.23-13.45 2-2 7.49-4.83 9.49-5.6 4.61-.95 8.15 1.2 11.08 4.33l2.72-2.69c-3.59-3.19-5.93-7.86-4-12.89.63-1.4 4.48-6.75 4.74-7.14l2-2c3.9-2.64 8-2 11.9-.24l1.48-3.53c-4.54-1.57-8.49-5-8.65-10.37a23.14 23.14 0 0 1 2.66-10.69c2.59-3.93 6.61-4.91 10.9-4.77v-3.83c-4.27.33-8.63-.93-11.11-4.62z" opacity=".27" fill="url(#B)"/><path d="M151.51 55.64l-1.45-3.55c-4.32 2.1-9.53 2.48-13.44-1.22a28.1 28.1 0 0 1-4.26-6.42c-.5-1.13-1-2.23-1.35-3.27-.94-4.61 1.21-8.15 4.33-11.08l-2.69-2.72c-3.19 3.6-7.86 5.93-12.89 4-1-.43-7.08-4.39-8.7-6.77-2.63-3.9-2-8-.23-11.89l-3.53-1.48c-1.57 4.54-5 8.48-10.37 8.64a21.57 21.57 0 0 1-10.74-2.58c-3.93-2.6-4.91-6.62-4.77-10.9H77.6c.28 4.8-1.37 9.75-6.28 12-3.93 1.57-8.76 1.53-11.07 1.47-4.63-.89-7.07-4.23-8.58-8.24-1.18.46-2.57 1-3.54 1.44 2.1 4.33 2.47 9.54-1.23 13.45a17.93 17.93 0 0 1-3.72 3.11 17.43 17.43 0 0 1-6.12 2.68c-4.61 1-8.15-1.21-11.08-4.33l-2.71 2.69c3.59 3.19 5.92 7.86 4 12.89-.15.33-4.1 6.72-6.63 8.61-3.9 2.63-8 2-11.89.23l-1.48 3.53c4.54 1.58 8.49 5 8.64 10.37a33.55 33.55 0 0 1-1.06 7.12 16.65 16.65 0 0 1-1.55 3.39 84.2 84.2 0 0 0 11.1 11.63c4 1 8 1.8 11.64 3.57a44.39 44.39 0 0 1-.46-3 42.82 42.82 0 0 1-9.29-4.43c-.91-2 1.81-2.25 2.72-3.37a38.92 38.92 0 0 1 6.61-2.87c.12-1 .29-2 .48-3a59.44 59.44 0 0 1-13.58 4.07c-1.42.15-3 .29-4-.84-.73-1.23-.43-2.9-.24-4.56.13-1.1 1.3-8.17 2.64-8.71s3.35.28 4.86 1.06c3.67 2.7 7.43 5.16 10.43 8.55.2-1 .45-2 .73-3a42.79 42.79 0 0 1-7-7.77c-.09-2.16 2.54-1.38 3.81-2.06a37.16 37.16 0 0 1 7.36-.11 44.54 44.54 0 0 1 1.63-2.64 58.91 58.91 0 0 1-14.29-1.42c-1.37-.42-2.87-.88-3.39-2.32-.26-1.79.68-3.9 1.63-5.7.15-.22 2.59-4.34 4.66-5.11s4 1.33 5.05 2.62c2.36 3.9 4.9 7.61 6.37 11.89a44.71 44.71 0 0 1 1.82-2.52 43.36 43.36 0 0 1-3.5-9.84c.75-2 2.88-.3 4.31-.45A37.67 37.67 0 0 1 52.13 49c.8-.63 1.63-1.24 2.47-1.82a59.54 59.54 0 0 1-12.52-6.73c-1.08-.9-2.31-1.91-2.25-3.45a8 8 0 0 1 2.9-4c3.46-2.73 5.69-3.83 7.6-4 1.54-.17 3 2.77 3.55 4.39.68 4.48 1.6 8.87 1.33 13.36a50.48 50.48 0 0 1 2.65-1.61 43.08 43.08 0 0 1 .53-10.39c1.47-1.59 2.77.82 4.16 1.23a38.22 38.22 0 0 1 5.23 5.07 46.52 46.52 0 0 1 3-.71 59.4 59.4 0 0 1-9-11c-.68-1.27-1.4-2.65-.77-4a8.23 8.23 0 0 1 3.66-2.36 42.82 42.82 0 0 1 6-1.23 5.88 5.88 0 0 1 3.26.29c1.61.66 1.37 3.77 1.23 5.46-1.08 4.4-1.92 8.8-3.88 12.85 1-.2 2-.35 3.06-.47a42.41 42.41 0 0 1 4.47-9.4c2-.9 2.24 1.82 3.36 2.73A37.88 37.88 0 0 1 85 39.84c1 .13 2 .29 3 .49a59.11 59.11 0 0 1-4-13.67c-.15-1.43-.29-3 .83-4a9 9 0 0 1 5-.75c3 .42 5.6 1 6.32 1.2A4.22 4.22 0 0 1 98 24.2c1 1-.3 4-1.07 5.54-2.75 3.74-5.25 7.58-8.74 10.6a8.29 8.29 0 0 1 1.75.4l1.3.34a43.23 43.23 0 0 1 7.92-7.18c2.16-.09 1.37 2.53 2.06 3.8a35.54 35.54 0 0 1 .09 7.49h-.09 0a7.69 7.69 0 0 1 2.25 1.4l.5.33h0-.05a59.09 59.09 0 0 1 1.42-14.44c.42-1.38.89-2.87 2.32-3.4 1.64-.24 7 2.29 8.87 4 .86.7 2.32 1.66 2.49 3.43s-1.78 3-3.08 4.07c-3.92 2.38-7.66 4.93-12 6.39h0a43.91 43.91 0 0 1 2.5 1.8 42.73 42.73 0 0 1 9.91-3.54c2 .75.3 2.87.45 4.31a37.94 37.94 0 0 1-2.7 6.8c.64.81 1.25 1.63 1.83 2.48a59.6 59.6 0 0 1 6.75-12.58c.91-1.11 1.92-2.31 3.44-2.25 1.78.45 3.4 2.19 4.71 3.77 1.26 2 3.09 4.29 3.1 6.57s-2.78 3-4.39 3.56c-4.48.68-8.86 1.59-13.34 1.33a44.54 44.54 0 0 1 1.63 2.64 43.27 43.27 0 0 1 10.35.54c1.59 1.47-.82 2.77-1.23 4.15a38.85 38.85 0 0 1-5 5.16 46.73 46.73 0 0 1 .73 3 59.17 59.17 0 0 1 10.94-8.92c1.27-.69 2.65-1.41 4-.77a7.26 7.26 0 0 1 2.09 3c.25.72 2.24 6.11 1.16 9s-3.47 2.53-5.32 2.1c-4.38-1.08-8.77-1.91-12.81-3.86.2 1 .37 2 .5 3.06a43.42 43.42 0 0 1 9.33 4.45c.91 2-1.82 2.25-2.73 3.37a39.15 39.15 0 0 1-6.56 2.85 44.39 44.39 0 0 1-.46 3 59 59 0 0 1 11.88-3.74 83.56 83.56 0 0 0 11-11.44 10.26 10.26 0 0 1-.87-1.57 29.19 29.19 0 0 1-1.56-11c.89-4.65 4.23-7.1 8.24-8.6z" fill="url(#C)"/><path d="M9.31 111.87l.64 1.67c5.28-2.51 9.5-1 13 2.23a21.42 21.42 0 0 1 2.88 3.41l-1 .71a23.65 23.65 0 0 0-3.07-3.47c-4.71-4.4-10-2.26-12.29-1.12l-.43.21-.26-.62c-.39-1-.94-2.25-1.38-3.35l-.17-.42z" fill="url(#D)"/><path d="M7.25,111.12l.42-.16c3.73-1.43,7-3,7.85-7.56.46-3-.27-7.58-1.15-10.49l1.18-.3c.89,3.1,1.73,8.25,1.29,11.16-.72,4.81-4,6.71-7.53,8.1Z" fill="url(#E)"/><path d="M25.27 137.15l1.28 1.3c3.92-4.34 8.18-5.36 12.66-3.7a18.27 18.27 0 0 1 4.16 2.47l-.75 1a18.5 18.5 0 0 0-3.89-2.3c-6-2.26-10.12 2.14-11.83 4.08l-.32.36-.48-.48c-.73-.72-1.36-1.41-2.19-2.26l-.32-.32z" fill="url(#F)"/><path d="M23.59,137.26l.33-.31c2.9-2.75,5.07-6.29,4-10.74a17.83,17.83,0,0,0-3.07-6.32l1-.71A19,19,0,0,1,29.1,126c1,4.76-1,8.45-3.83,11.19Z" fill="url(#G)"/><path d="M52.31 156.39l-.62-.25-3.34-1.39-.42-.17.19-.42c1.62-3.64 2.7-6.81.12-10.59a20.64 20.64 0 0 0-5.62-5.39l.75-1a24.18 24.18 0 0 1 6 5.79c2.74 4 2 7.13.44 10.75.89.37.93.42 1.72.74z" fill="url(#H)"/><path d="M51.55,154.5c2-5.51,5.7-7.71,10.48-7.89a30.52,30.52,0,0,1,4.73.6l-.3,1.18a30.3,30.3,0,0,0-4.58-.51c-6.45.21-8.57,5.62-9.41,8.07l-.16.44Z" fill="#9b773d"/><path d="M82.08 161.52h-4.74v-.45c.11-4-.14-7.64-4-10.14a18.57 18.57 0 0 0-7-2.55l.22-1.2a19.57 19.57 0 0 1 7.65 2.75c4.07 2.66 4.6 6.13 4.52 10.07h1.8z" fill="url(#I)"/><path d="M80.57 160c-.09-5.83 2.19-9 6.47-11.14a22.11 22.11 0 0 1 4.82-1.53l.29 1.22a17.27 17.27 0 0 0-4.07 1.36c-5.87 2.66-6.19 8.54-6 11.12v.47z" fill="#9a763c"/><path d="M111.62 154.75l-.62.25-3.34 1.38-.42.17-.16-.42c-1.43-3.73-2.88-7-7.39-7.84a17.82 17.82 0 0 0-7.64.28l-.32-1.2a20.78 20.78 0 0 1 8.31-.47c4.78.9 6.45 3.89 7.89 7.56.9-.36.87-.32 1.66-.65z" fill="url(#J)"/><g fill="#9b773d"><path d="M109.59,153.82c-2.51-5.28-1.41-9.41,1.84-12.91A25.08,25.08,0,0,1,115,138l.86,1.15a26.24,26.24,0,0,0-3.38,2.7c-4.4,4.71-2.23,10.18-1.09,12.51l.2.42Z"/><path d="M136.34 137.19l-.48.48-2.56 2.55-.32.32-.31-.33c-2.75-2.9-5.5-5.3-10-4.36a17.41 17.41 0 0 0-6.8 3.27l-.95-1.06a19.81 19.81 0 0 1 7.31-3.49c4.76-1 8 1 10.69 3.85.69-.68.68-.75 1.29-1.36z"/></g><path d="M134.22,137.06c-4.35-3.92-4.86-8.07-3.2-12.55a28,28,0,0,1,2.29-4.37l1.1.63a25.47,25.47,0,0,0-2.17,4.08c-2.26,6,1.8,10.31,3.74,12l.36.32Z" fill="url(#K)"/><path d="M152.45 110.91l-.25.63-1.39 3.34-.18.41-.41-.18c-3.65-1.63-7.11-2.79-10.89-.21-2.43 1.78-3.4 3.44-4.92 5.87l-1.1-.63a19.44 19.44 0 0 1 5.2-6.17c4-2.74 7.65-2.37 11.26-.79l.67-1.58z" fill="url(#L)"/><path d="M150.44,111.6c-5.52-2-7.68-5.63-7.85-10.41a29,29,0,0,1,.27-4.46l1.28.23a26.63,26.63,0,0,0-.21,4.32c.22,6.45,5.63,8.64,8.08,9.48l.44.15Z" fill="url(#M)"/><path d="M157.06 80.86v.67 3.62.45h-.45c-4-.11-7.67.24-10.17 4.08-1.57 2.57-1.83 4.46-2.3 7.29l-1.28-.23c.44-2.62.79-5.19 2.45-7.92 2.66-4.07 6.21-4.73 10.15-4.65v-1.88z" fill="#9b773d"/><path d="M155.44 82.28c-5.86.08-9.17-2.26-11.36-6.59a21.62 21.62 0 0 1-1.35-4.51l1.18-.22a18.91 18.91 0 0 0 1.3 4.05c2.67 5.87 8.8 6 11.38 5.88h.47z" fill="url(#N)"/><path d="M26,88.9c-6.68-1.15-7.65-.42-8.06,1.29-.34,1.42.31,5.31.44,5.83l-1.11.26c-.1-.33-1.05-4.85-.44-6.64.74-2.21,2.45-3.14,9.06-2Z" fill="url(#O)"/><path d="M28.5 100.73c-.68.44-1.79 1-2.87 1.63-1.25.67-3.33 1.66-4.75.67h-.05c-1.79-1.1-3-4.22-3.53-6.72l1.11-.31c.47 1.87 1.65 5 3.07 6 1.26.56 2.42 0 3.58-.66a28.16 28.16 0 0 0 3-1.92z" fill="url(#P)"/><path d="M32.11,109.05c-6.62,1.49-7.18,2.32-7,4.07s2.58,5.24,2.66,5.38l-.85.54c-.16-.17-2.82-4-2.95-5.84-.15-2.32,1.14-3.61,7.68-5.08Z" fill="url(#Q)"/><path d="M38.77,118.81c-.55.93-1.29,1.85-2,2.8-.9,1.1-2.16,2.53-4.06,2.37h-.07c-1.81-.2-4.33-2.81-5.8-4.93l.85-.54c1.1,1.53,3.58,4.16,5.11,4.44,1.38.13,2.29-1,3.13-2.07s1.5-2.05,2.05-3Z" fill="url(#R)"/><path d="M45.53,125.36c-5.54,3.91-5.93,4.76-5.08,6.3,1.09,2,4.5,4,4.63,4.13l-.56.89c-.12-.09-4.18-2.46-5.25-4.86-1-2.13,0-3.27,5.44-7.13Z" fill="url(#S)"/><path d="M55.24 131.72l-.74 3.4c-.43 1.7-1 3.59-2.82 3.94h-.06c-1.92.28-5.22-1.07-7.12-2.41l.58-.88c1.73 1.18 4.64 2.42 6.39 2.17 1.09-.2 1.65-2 2-3.25l.83-3.48z" fill="url(#T)"/><path d="M64,135.21c-3.62,5.73-3.37,6.52-2,7.65s5.16,1.92,5.63,2l-.16,1c-1.14-.11-5-1.05-6.41-2.3-1.75-1.54-1.61-2.94,2-8.6Z" fill="url(#U)"/><path d="M75.38 137.34a22.85 22.85 0 0 1 .73 3.57 4.78 4.78 0 0 1-1.22 4.18h0c-1.41 1.13-5.27 1-7.4.69l.15-1c1.86.31 5.6.29 6.64-.61.73-.54.92-2 .79-3.32a21.4 21.4 0 0 0-.77-3.67z" fill="url(#V)"/><path d="M85.11,137.21c-1.16,6.68-.59,7.43,1.09,7.95s5.79-.45,6-.48l.25.89c-.29.1-4.87,1.26-6.94.52s-2.81-2.16-1.66-8.77Z" fill="url(#W)"/><path d="M96.46 134.77a24.17 24.17 0 0 1 2.07 2.95c.67 1.25 1.48 3 .77 4.51v.06c-1 1.67-4.58 2.79-6.83 3.28l-.22-.89c1.84-.43 5.16-1.59 6-3 .5-.8 0-2.3-.67-3.46a19.28 19.28 0 0 0-2-3.12z" fill="url(#X)"/><path d="M105,131.08c1.49,6.61,2.29,7.09,4,6.93s5-2.41,5.35-2.68l.76.85c-.39.35-4.2,2.94-6.32,3-2.33.1-3.61-.95-5.08-7.49Z" fill="url(#Y)"/><path d="M114.73,124.35c1.06.66,1.92,1.34,2.83,2,1.09.91,2.71,2.41,2.48,4.11v.06c-.48,1.88-3.1,4.4-4.86,5.65l-.79-.83c1.54-1.1,4.29-4,4.43-5s-.91-2.26-1.93-3.1a20.22,20.22,0,0,0-3-2.12Z" fill="url(#Z)"/><path d="M121.35,117.51c3.78,4.85,4.77,5.61,6.33,4.79s3.72-4.49,3.82-4.62l1.06.83c-.09.12-2.7,4.29-4.4,5.13-2.09,1-3.63.19-7.49-5.29Z" fill="url(#a)"/><path d="M127.72,107.66a26.5,26.5,0,0,1,3.53.77c1.35.41,3.58,1.11,4,2.83v.06c.41,1.94-1.53,5.38-2.68,7.21l-1.05-.85c1-1.64,2.75-4.66,2.38-6s-1.95-1.76-3.22-2.15-2.4-.6-3.53-.78Z" fill="url(#b)"/><path d="M131.08,99.05c5.73,3.62,6.44,3.56,7.66,2.29s1.83-5.66,1.87-5.92l1.24.17c-.07.52-.81,5.36-2.06,6.79-1.54,1.75-3.45,1.59-9.12-2Z" fill="url(#c)"/><path d="M133.16 87.38l3.47-.5c1.42-.14 3.56-.25 4.6 1.17h0c1 1.67.93 5.39.57 7.51l-1.23-.19c.31-1.86.33-4.86-.46-6.36-.77-1.07-2.11-1.08-3.43-1l-3.66.58z" fill="url(#d)"/><path d="M54.33,36.26c-1.58-6.67-2.73-7.21-4.48-7s-4.66,2.28-4.9,2.44l-.58-.88c.55-.45,3.81-2.59,5.7-2.71,2.32-.16,3.68,1.08,5.25,7.68Z" fill="url(#e)"/><path d="M63 32.61c-2-2.6-3.54-5.79-2.82-7.56v-.06c1.07-1.72 4.6-3.06 6.8-3.59l.23 1c-1.63.33-4.83 1.49-5.9 2.9-.7 1 .37 4 2.66 7z" fill="url(#f)"/><path d="M74.09,30.27c1-6.57.5-7.71-1.18-8.24s-5.39.33-5.71.4l-.26-1c.26-.08,4.87-1.07,6.84-.35,2.19.8,2.44,2.6,1.4,9.09Z" fill="url(#g)"/><path d="M83.77 30.17c-.17-1.13-1.77-5.79.42-8h.06c1.61-1.35 6.33-.89 7.45-.69l-.18.93c-.9-.12-5.39-.55-6.51.59-1.61 1.59-.4 6.25-.21 7.28z" fill="url(#h)"/><path d="M95,32.28c3.49-5.67,3.59-7.07,2.24-8.2s-5.1-1.6-5.76-1.69l.14-.93c1.19.11,5.08.76,6.5,2C99.91,25,99.55,27,96.1,32.57Z" fill="url(#i)"/><path d="M104 35.87l.84-3.37c.35-1.26 1-3.3 2.61-3.89h.06c2.17-.76 5.7 1.08 7.25 2l-.6.81c-.81-.52-4-2.58-6.26-1.9-1.28.5-1.78 2-2.16 3.23l-.9 3.54z" fill="url(#j)"/><path d="M113.43,42c5.39-3.9,6-5.19,5.17-6.75s-4.32-3.72-4.45-3.82l.6-.81c.31.2,4.08,2.55,4.92,4.25,1,2.09-.19,3.88-5.52,7.74Z" fill="url(#k)"/><path d="M120.26 48.69l2.19-2.85c1.15-1.22 2.17-2.24 3.85-2.18h0c2.27.21 4.81 2.69 6 4.53l-1 .66c-.82-1.28-2.9-3.86-5.21-4.08-1.11-.06-2.12 1-3 1.92s-1.64 2.17-2.18 2.85z" fill="url(#l)"/><path d="M126.8,58.15c6.48-1.55,6.92-2.55,6.76-4.3s-2-4.73-2.24-5l1-.66c.37.43,2.44,3.94,2.57,5.83.15,2.33-1.14,3.61-7.54,5.14Z" fill="url(#m)"/><path d="M133,78.16c6.27.93,7.44.37,8-1.31s-.2-4.75-.29-5.29l1.1-.29c0,.14.89,4.17.19,6.11-.8,2.19-2.38,2.88-8.88,1.85Z" fill="url(#n)"/><path d="M130.61 67l3-1.75c1.14-.75 3-1.49 4.58-.78l.3.16c2 1.06 2.86 4.9 3.28 6.68l-1.1.29c-.28-1.1-.88-5.14-2.82-6.16-1.26-.56-2.63.12-3.8.74l-3.13 1.86z" fill="url(#o)"/><path d="M37.86,49.8C34,44.67,32.77,44.14,31.21,45s-3.44,4-3.54,4.13l-.9-.68c.12-.18,2.26-3.62,4-4.46,2.09-1,3.9-.5,7.83,5Z" fill="url(#p)"/><path d="M44.34 43.1l-2.81-2.11c-1.02-.79-2.71-2.06-2.5-4V37c.3-1.81 3.29-4.81 5.36-6.23l.55.91c-1.72 1.38-4.36 3.59-4.79 5.44-.17 1.21 1.1 2.16 2.12 3l2.91 2.3z" fill="url(#q)"/><path d="M78.83 7.91C78.47 13.86 76.32 17 72 19a23.16 23.16 0 0 1-4.78 1.46l-.26-1.12A27.14 27.14 0 0 0 71.23 18c5.88-2.64 6.2-8.66 6.06-11.24v-.47z" fill="url(#r)"/><path d="M77.26 6.24H82v.45c-.13 4 .11 7.64 3.93 10.17a18.09 18.09 0 0 0 6.47 2.52l-.25 1.14a19.49 19.49 0 0 1-7.06-2.7c-4.06-2.68-4.7-6-4.6-9.95h-1.65z" fill="url(#s)"/><path d="M107.84,12.78c-2.23,5.44-6,8.11-10.82,8.27a28.06,28.06,0,0,1-4.88-.51l.19-1.15a23,23,0,0,0,4.68.38c6.44-.18,8.93-6,9.79-8.44l.15-.45Z" fill="url(#t)"/><path d="M107 10.88l.63.26 3.33 1.4.42.18-.19.41c-1.65 3.64-2.83 7.1-.26 10.9a20.31 20.31 0 0 0 5.07 4.69l-.68.94a24.15 24.15 0 0 1-5.42-5c-2.73-4-2-7.62-.44-11.22l-1.57-.65z" fill="url(#u)"/><path d="M132.5,29c-3.94,4.32-8.23,5-12.7,3.34a22.07,22.07,0,0,1-4.53-2.64l.68-.94a19.07,19.07,0,0,0,4.11,2.45c6,2.29,10.46-2.06,12.18-4l.32-.35Z" fill="url(#v)"/><path d="M132.56 26.86l.48.48 2.54 2.57.31.33-.32.3c-2.92 2.74-5.33 5.48-4.41 10A23.82 23.82 0 0 0 134 46.9l-.94.55a21.49 21.49 0 0 1-3.06-6.66c-1-4.77 1-7.75 3.82-10.47l-1.32-1.33z" fill="url(#w)"/><path d="M150.23 51.64l.26.63 1.37 3.35.14.38-.43.16c-3.74 1.41-7.11 3-8 7.46a20.47 20.47 0 0 0 .29 7.3l-1.18.22a21.05 21.05 0 0 1-.39-7.62c.92-4.77 4.08-6.85 7.76-8.27-.36-.9-.31-.89-.64-1.69z" fill="url(#x)"/><path d="M149.46,53.6c-5.29,2.49-9.73,1.47-13.21-1.8a25.42,25.42,0,0,1-3.19-4.35l.94-.55a20.86,20.86,0,0,0,3.09,4c4.69,4.43,10.39,2.12,12.72,1l.42-.21Z" fill="url(#y)"/><path d="M49.54,14.06c2.65,5.19,2.05,9.06-1.58,12.82a21,21,0,0,1-4,3l-.68-1A32.62,32.62,0,0,0,47.1,26c4.4-4.71,1.83-10.1.69-12.42l-.21-.42Z" fill="url(#z)"/><path d="M47.58 13.12l.63-.27 3.34-1.38.45-.17.16.42c1.43 3.74 3.06 7 7.56 7.85a21.44 21.44 0 0 0 7.23-.26l.26 1.12a20 20 0 0 1-7.73.42C54.67 20 52.64 17 51.2 13.36c-.9.36-.87.37-1.66.7z" fill="url(#AA)"/><path d="M22.81 30.86l.48-.48 2.56-2.56.32-.31.31.33c2.75 2.9 5.55 5.15 10 4.21a21.78 21.78 0 0 0 6.78-3.17l.68 1a22.21 22.21 0 0 1-7.2 3.42c-4.76 1-7.69-.71-10.42-3.55-.69.68-.68.64-1.28 1.25z" fill="url(#AB)"/><path d="M25.07,31c4.34,3.92,4.74,8.27,3.07,12.75a18.51,18.51,0,0,1-2.27,3.87l-1.1-.8A17.26,17.26,0,0,0,26.93,43c2.27-6-1.82-10.1-3.76-11.82l-.36-.31Z" fill="url(#AC)"/><path d="M6.86 56.38l.26-.62 1.38-3.34.18-.42.41.18c3.65 1.63 7.15 2.65 10.83-.07a22.56 22.56 0 0 0 4.85-5.27l1.1.8c-1.66 2-2.67 3.74-5.25 5.63-4 2.74-7.37 2.24-11 .66l-.69 1.72z" fill="url(#AD)"/><path d="M8.94,55.65c5.51,2,8,5.87,8.18,10.65a25.17,25.17,0,0,1-.53,4.51l-1.29-.27a27.6,27.6,0,0,0,.5-4.26c-.22-6.44-6-8.9-8.49-9.74l-.45-.16Z" fill="url(#AE)"/><path d="M3.65 82.77v1.75c4 .36 7.06 1.52 9.13 3.5a10.54 10.54 0 0 1 2.77 4.59l-1.18.3a9.55 9.55 0 0 0-2.61-4.16 14.5 14.5 0 0 0-9.54-2.93V81.4z" fill="url(#AF)"/><path d="M2.21,81.4h.45c4,.11,7.64-.14,10.14-4a16.82,16.82,0,0,0,2.5-6.89l1.29.27a20.87,20.87,0,0,1-2.68,7.52c-2.66,4.08-6.32,4.52-10.26,4.44Z" fill="url(#AG)"/><path d="M28.1,68.05c-5.73-3.63-6.4-3.41-7.53-2s-1.68,5.53-1.72,5.69l-1.17-.3c.05-.14.74-5,2-6.41,1.54-1.75,3.14-1.72,8.81,1.87Z" fill="url(#AH)"/><path d="M31.67 59.25l-3.36-.94c-1.36-.41-3.06-.83-3.64-2.41v-.06c-.55-2 .77-5.49 2.13-7.44l.9.68c-1.26 2.08-2.26 4.73-1.92 6.17.23 1.27 1.73 1.74 3 2.13l3.43.93z" fill="url(#AI)"/><path d="M25.9 79.77l-3.47.56c-1.36.16-3.33.22-4.48-1h0c-1.26-1.6-.59-5.75-.23-7.88l1.17.31c-.21 1.26-1.06 5.1 0 6.64.74 1 2.44.86 3.76.73l3.46-.51z" fill="url(#AJ)"/><path d="M132.77 83.74A53.25 53.25 0 1 1 79.53 30.5a53.25 53.25 0 0 1 53.24 53.24z" fill="#fff"/><path d="M132.71 83.79a53.17 53.17 0 1 1-53.17-53.17 53.16 53.16 0 0 1 53.17 53.17z" fill="url(#AK)"/><circle class="AP" cx="79.54" cy="83.75" r="53.17" fill="url(#AL)" opacity=".3"/><path d="M53.93 81.91a4.73 4.73 0 0 0 2.77-.77l1.58-.82a1.05 1.05 0 0 1 1.24.26 1 1 0 0 0 1.23-.43 6.81 6.81 0 0 1 1-.92 6.45 6.45 0 0 0 1.14-.14 6.29 6.29 0 0 1 3.25 1.78 27.2 27.2 0 0 1 4.27 2.41A7.24 7.24 0 0 1 74 85.15c.27.9 1.15 1.19 2.22 1.19a16.26 16.26 0 0 1 2.46.11c.68.3 1.19.82 2 1.12a10.48 10.48 0 0 1 1.77.23 7.8 7.8 0 0 1 2.46 2.25 1.33 1.33 0 0 1 0 .86 15.24 15.24 0 0 0-2 5.3 8.66 8.66 0 0 1-1 2.57 5.15 5.15 0 0 1-1.54 1.22 11.85 11.85 0 0 0-2.39 1.7 41.69 41.69 0 0 0-1.93 6.13c-.12.51-.74.76-1.38.72a2.78 2.78 0 0 0-2.44 2.33 1.85 1.85 0 0 1-1.41 1.36 1.18 1.18 0 0 0-.79 1.16 2.09 2.09 0 0 1-.46 1.43.86.86 0 0 0-.2.91 6.89 6.89 0 0 1 1.11 2.73c-.32.84.37 1.35.77 1.76a1.3 1.3 0 0 1 .28 1.33 2.1 2.1 0 0 1-.87.3 5.43 5.43 0 0 1-2.22-.13c-.74-.22-1.08-.91-1.37-1.61a21.2 21.2 0 0 1-1.29-3.22c0-1.29-.74-1.9-1.06-2.83a14.87 14.87 0 0 1-.72-4.67 4.85 4.85 0 0 0-1.11-2.22 5.53 5.53 0 0 1-.83-1.31 5.21 5.21 0 0 0-.72-3.49l-.29-2.69A5.8 5.8 0 0 0 59 98a14.23 14.23 0 0 0-2-1 6.2 6.2 0 0 1-1.8-3 15.71 15.71 0 0 0-1.2-2.14 13.58 13.58 0 0 1 .17-2.6l.07-1.45a3.69 3.69 0 0 0 .88-1.61 2.13 2.13 0 0 0-.61-2.1 1.33 1.33 0 0 0-.76-.26 7.2 7.2 0 0 1-3.39-1.3 3.28 3.28 0 0 1-.87-.57 7.64 7.64 0 0 0-4.14-2.49c-1.4-.89-3.18-1.19-4.64-1.9a4.25 4.25 0 0 1-1.92-2.87 1.91 1.91 0 0 0-1.31-1.46 4 4 0 0 1-1.64-3.18 21.76 21.76 0 0 0-1.05-2 1.46 1.46 0 0 1 0-1 6.63 6.63 0 0 0-.25-4.41 4.35 4.35 0 0 1 0-1.14 7 7 0 0 1 1.1-3.37 1.79 1.79 0 0 0 .15-1.38 2.44 2.44 0 0 1 .91-2.69 1.22 1.22 0 0 0 .49-1.28 4.52 4.52 0 0 1 1.15-1.8 5.22 5.22 0 0 1 .66-1.34 17.79 17.79 0 0 1 4.3-5.09l3.79-3.1 2.5-1.93 3.66-2.24a31.93 31.93 0 0 1 4-1.95 1.6 1.6 0 0 1 .74-.08 20.42 20.42 0 0 0 1.13 2 3.37 3.37 0 0 1 1.05 0 5.59 5.59 0 0 1 .92.51c.17.09.43 0 .5.12a2.64 2.64 0 0 0 .77.94 17.74 17.74 0 0 0 1.82 1.54c.72 0 1.39.22 1.56.69a2.23 2.23 0 0 1 .13.4 5.54 5.54 0 0 1-.8 3.58.45.45 0 0 1-.5.19 1.8 1.8 0 0 1-1.21-1.14c-.21-.44-.35-1-.74-1.26a1.62 1.62 0 0 0-.69-.21.78.78 0 0 0-.77.63 1 1 0 0 1-.24.56c-.34.31-1 .32-1.32.61a1.11 1.11 0 0 0-.37 1A2.29 2.29 0 0 1 56.35 47a3 3 0 0 0-2.41.57c-.12.39.06.78 0 1.14 0 .15-.31.56-.35.71s.18.34.35.41a10.4 10.4 0 0 0 1 .43l.85 1c.12.13.36.24.49.17a11.07 11.07 0 0 0 2.59-1.38 6.52 6.52 0 0 0 1.31-2.51c0-.13.22-.29.32-.28a8.37 8.37 0 0 0 2.37-.06 2.1 2.1 0 0 1 1.76 1.61c.16.62.05 1.45.23 2a8.61 8.61 0 0 0 1.22 1.28c.27.1.66.14.85.41.52.79.46 2.32-.36 2.76a4.32 4.32 0 0 1-1.26.42c-.49-.14-1-.39-1.69-.61a5.16 5.16 0 0 0-2.42 1.33c-.1.1-.2.37 0 .43.43.13.76-.12 1.12-.25a1.54 1.54 0 0 1 1 0 .4.4 0 0 1 .27.39 2.4 2.4 0 0 1-.55 1.44 6.38 6.38 0 0 1-3 2.08 12.08 12.08 0 0 0-2 3.94 9.51 9.51 0 0 1-3.94 2.7 1 1 0 0 0-.46 1.27 7.72 7.72 0 0 1 .84 1.6 3 3 0 0 1 0 .91c-.07.17-.24.34-.38.34-.82 0-1.17-.6-1.56-1.08A4.58 4.58 0 0 0 51 68.81a4.28 4.28 0 0 0-3.21.7 4.08 4.08 0 0 0-1.67.56 1 1 0 0 0-.19.65 5.43 5.43 0 0 1-.62 2.3 2.55 2.55 0 0 0-.15 1.06v1.14a1.75 1.75 0 0 0 .37.76.67.67 0 0 0 .79.08c.53-.45.91-1.14 1.73-1.33a1.85 1.85 0 0 0 .83.09c.49.07.67.45.81.77a2.2 2.2 0 0 1-.14 1.69c0 .15-.07.38 0 .44.28.16.57 0 .83 0 .56-.07.71.38 1 .58" opacity=".8" fill="url(#AM)"/><path d="M45.39 79.48c-1.4-.89-3.18-1.19-4.64-1.9a4.25 4.25 0 0 1-1.92-2.87 1.91 1.91 0 0 0-1.31-1.46 4 4 0 0 1-1.64-3.18 21.76 21.76 0 0 0-1.05-2 1.46 1.46 0 0 1 0-1 6.63 6.63 0 0 0-.25-4.41 4.35 4.35 0 0 1 0-1.14 7 7 0 0 1 1.1-3.37 1.79 1.79 0 0 0 .15-1.38 2.44 2.44 0 0 1 .91-2.69 1.22 1.22 0 0 0 .49-1.28 4.52 4.52 0 0 1 1.11-1.8 5.22 5.22 0 0 1 .66-1.34 17.79 17.79 0 0 1 4.3-5.09l3.79-3.1 2.5-1.93 3.66-2.24a31.93 31.93 0 0 1 4-1.95 1.6 1.6 0 0 1 .74-.08 20.42 20.42 0 0 0 1.13 2 3.37 3.37 0 0 1 1.05 0 5.59 5.59 0 0 1 .92.51c.17.09.43 0 .5.12a2.64 2.64 0 0 0 .77.94 17.74 17.74 0 0 0 1.82 1.54c.72 0 1.39.22 1.56.69a2.23 2.23 0 0 1 .13.4A5.56 5.56 0 0 1 65.1 45a.49.49 0 0 1-.51.24 1.77 1.77 0 0 1-1.23-1.14c-.21-.44-.35-1-.74-1.26a1.62 1.62 0 0 0-.69-.21.78.78 0 0 0-.77.63 1 1 0 0 1-.24.56c-.34.31-1 .32-1.32.61a1.11 1.11 0 0 0-.37 1A2.29 2.29 0 0 1 56.35 47a3 3 0 0 0-2.41.57c-.12.39.06.78 0 1.14 0 .15-.31.56-.35.71s.18.34.35.41a10.4 10.4 0 0 0 1 .43l.85 1c.12.13.36.24.49.17a11.07 11.07 0 0 0 2.59-1.38 6.52 6.52 0 0 0 1.31-2.51c0-.13.22-.29.32-.28a8.37 8.37 0 0 0 2.37-.06 2.1 2.1 0 0 1 1.76 1.61c.16.62.05 1.45.23 2a8.61 8.61 0 0 0 1.22 1.28c.27.1.66.14.85.41.52.79.46 2.32-.36 2.76a4.32 4.32 0 0 1-1.26.42c-.49-.14-1-.39-1.69-.61a5.16 5.16 0 0 0-2.42 1.33c-.1.1-.2.37 0 .43.43.13.76-.12 1.12-.25a1.54 1.54 0 0 1 1 0 .4.4 0 0 1 .27.39 2.4 2.4 0 0 1-.55 1.44 6.38 6.38 0 0 1-3 2.08 12.08 12.08 0 0 0-2 3.94 9.51 9.51 0 0 1-3.94 2.7 1 1 0 0 0-.46 1.27 7.72 7.72 0 0 1 .84 1.6 3 3 0 0 1 0 .91c-.07.17-.24.34-.38.34-.82 0-1.17-.6-1.56-1.08A4.58 4.58 0 0 0 51 68.81a4.28 4.28 0 0 0-3.21.7 4.08 4.08 0 0 0-1.67.56 1 1 0 0 0-.19.65 5.43 5.43 0 0 1-.62 2.3 2.55 2.55 0 0 0-.15 1.06v1.14a1.75 1.75 0 0 0 .37.76.67.67 0 0 0 .79.08c.53-.45.91-1.14 1.73-1.33a1.85 1.85 0 0 0 .83.09c.49.07.67.45.81.77a2.2 2.2 0 0 1-.14 1.69c0 .15-.07.38 0 .44.28.16.57 0 .83 0 .56-.07.71.38 1 .58" opacity=".45" fill="url(#AN)"/><use xlink:href="#Al" fill="url(#AO)"/><use xlink:href="#Al" opacity=".7" fill="url(#AP)"/><use xlink:href="#Am" opacity=".9" fill="url(#AQ)"/><use xlink:href="#Am" opacity=".9" fill="url(#AR)"/><use xlink:href="#An" fill="url(#AS)"/><use xlink:href="#Ao" fill="#bcc8e1"/><use xlink:href="#Ao" fill="#9ed3f2"/><path d="M76.76 41.29a1 1 0 0 1 .35-.08 6 6 0 0 1 1.63.69c.18.12.36.43.15.61A4 4 0 0 1 78 43h-1a2.52 2.52 0 0 1-1.14-.67 2.81 2.81 0 0 1 .9-1.04z" opacity=".9" fill="url(#AQ)"/><use xlink:href="#Ap" fill="url(#AT)"/><use xlink:href="#Ap" opacity=".25" fill="url(#AU)"/><path d="M89.93 35.57l1.9.73 1 .37 1.39.58.51-.36-1-.81-2.19-1.83-1.46-.25-1.39-1-1.1-.58.81-.07 1.9 1 2.92 1 1.46.15.88.73 1 .07-.44.59 1.68 1.46-.95.44s-1.31-.44-1.24 0-2.19.36-2.19.36l-.66-.51-.22-.51-1.09-.29-.73.29 2 2-.8 1 .22 1.17-.37 1.1-.58.87-.66.88a1.86 1.86 0 0 0-1.53.59c-.73.73.36.73 2.19 1.24s3.8 3.66 3.8 3.66a15.26 15.26 0 0 1-2.12.36 19.36 19.36 0 0 0-3 .29l-1.49 1.08c-.29 0 .94 1.43 1.34 1.93a2.78 2.78 0 0 1 .44 1.48l.15 1.39c.48.65 1.5.2 1.46.87.11.47.63.92.8 1.24.07.14 1.32-.11 1.39-.07L96 59h0a.05.05 0 0 0 0 0 2.22 2.22 0 0 1 1.84-1.39C98.94 57.49 99 57 99 57l.22-1.63-.29-1.55-.52-1.7.37-1.39.89-1s-1.11-1.39.15-1.94 2.58-.54 2.58-1 1.41.62 1.85.77 2.14 1.24 3.4 1.24a8.76 8.76 0 0 1 3.35 1.26l1.4 1.54-.66-1.7.44-.23a4.46 4.46 0 0 0-1.47-1.08c-.89-.39-3.18-1.17-3.18-1.17L105.07 46 104 45a37.57 37.57 0 0 0 3.58 1 31.55 31.55 0 0 1 4 2.25l1.78 1.31 1.25 1.32a11.94 11.94 0 0 0 1.7 1.31c.3.08 1.55.55 1.55.24a6.76 6.76 0 0 0-.52-1.4L116 49.82l-.51-1.39.51.31 1.11 1.32 1.41 1.08 1 .31.66.77.67-.85.89.08 1 1.86.36-.38a57.72 57.72 0 0 0-7.66-8.48l-3.84-3.13A14.8 14.8 0 0 0 110 40a52.55 52.55 0 0 0-24-9.06.37.37 0 0 0-.36.22c-.07.17.08.3.08.35a4.73 4.73 0 0 1-.46 2.49.53.53 0 0 0 .06.36c.21.37.45.71.69 1a20.51 20.51 0 0 0 1.88 1c.95.45 2.04-.79 2.04-.79z" opacity=".9" fill="url(#AS)"/><g fill="#90a6ce"><path d="M111.73 51.59l-1.55.16.16.85 2.09.54.15-.62-.85-.93zm-6.75-.48l1.32 1.7 1.08.31-.08-.92-1.39-1.48-.7-.07-.23.46zm-1.44-2.31l.93 1.16h.54l-.85-1.32-.62.16z"/></g><g fill="#99add2"><path d="M88.37 44.16l1.58-1.03 1.21-.46-.42-.56-.28-.41-.98-.16-1.21-.51-.88-.47-.56-.05-.23-.82h-.89l-.74-.41-.38.52.84.61.28.67.37.36.7-.16.84.11.37.56-.69-.1.6.56v.52l.7.26-.23.97zm-2.65-2.56l.7.45.64.5.25.54-1.04.65-.94-.05v-.8l-.5-.25-.15-.39.3-.1v-.4l.74-.15z" opacity=".9"/></g><path d="M53.93 81.91a4.73 4.73 0 0 0 2.77-.77l1.58-.82a1.05 1.05 0 0 1 1.24.26 1 1 0 0 0 1.23-.43 6.81 6.81 0 0 1 1-.92 6.45 6.45 0 0 0 1.14-.14 6.29 6.29 0 0 1 3.25 1.78 27.2 27.2 0 0 1 4.27 2.41A7.24 7.24 0 0 1 74 85.15c.27.9 1.15 1.19 2.22 1.19a16.26 16.26 0 0 1 2.46.11c.68.3 1.19.82 2 1.12a10.48 10.48 0 0 1 1.77.23 7.8 7.8 0 0 1 2.46 2.25 1.33 1.33 0 0 1 0 .86 15.24 15.24 0 0 0-2 5.3 8.66 8.66 0 0 1-1 2.57 5.15 5.15 0 0 1-1.54 1.22 11.85 11.85 0 0 0-2.39 1.7 41.69 41.69 0 0 0-1.93 6.13c-.12.51-.74.76-1.38.72a2.78 2.78 0 0 0-2.44 2.33 1.85 1.85 0 0 1-1.41 1.36 1.18 1.18 0 0 0-.79 1.16 2.09 2.09 0 0 1-.46 1.43.86.86 0 0 0-.2.91 6.89 6.89 0 0 1 1.11 2.73c-.32.84.37 1.35.77 1.76a1.3 1.3 0 0 1 .28 1.33 2.1 2.1 0 0 1-.87.3 5.43 5.43 0 0 1-2.22-.13c-.74-.22-1.08-.91-1.37-1.61a21.2 21.2 0 0 1-1.29-3.22c0-1.29-.74-1.9-1.06-2.83a14.87 14.87 0 0 1-.72-4.67 4.85 4.85 0 0 0-1.11-2.22 5.53 5.53 0 0 1-.83-1.31 5.21 5.21 0 0 0-.72-3.49l-.29-2.69A5.8 5.8 0 0 0 59 98a14.23 14.23 0 0 0-2-1 6.2 6.2 0 0 1-1.8-3 15.71 15.71 0 0 0-1.2-2.14 13.58 13.58 0 0 1 .17-2.6l.07-1.45a3.69 3.69 0 0 0 .88-1.61 2.13 2.13 0 0 0-.61-2.1 1.33 1.33 0 0 0-.76-.26 7.2 7.2 0 0 1-3.39-1.3 3.28 3.28 0 0 1-.87-.57 7.64 7.64 0 0 0-4.14-2.49" opacity=".3" fill="url(#AV)"/><use xlink:href="#An" fill="url(#AW)"/><path d="M69.84 122a4.85 4.85 0 0 1-1.41-.2 2.41 2.41 0 0 1-1.43-1.64l-.42-.93a12 12 0 0 1-.87-2.29 3.53 3.53 0 0 0-.62-1.92 5.11 5.11 0 0 1-.44-.91 14.54 14.54 0 0 1-.7-4.71 4.8 4.8 0 0 0-1.1-2.18 6.47 6.47 0 0 1-.84-1.33h0 0a5.09 5.09 0 0 0-.71-3.45h0l-.3-2.73a3.8 3.8 0 0 0-1.53-1.31l-.57-.36a10.38 10.38 0 0 0-1.49-.75l-.51-.22a5.73 5.73 0 0 1-1.67-2.8l-.1-.29a7.56 7.56 0 0 0-.74-1.38l-.43-.71h0a6.75 6.75 0 0 1 .07-1.71c0-.29.08-.59.1-.91s0-1 .07-1.4v-.06l.06-.07a3.73 3.73 0 0 0 .83-1.54 2.09 2.09 0 0 0-.6-2 1.23 1.23 0 0 0-.73-.24 7.15 7.15 0 0 1-3.36-1.28h-.05l-.28-.15a2 2 0 0 1-.61-.43 7.49 7.49 0 0 0-4.11-2.47h0a12.41 12.41 0 0 0-2.67-1.14 15.87 15.87 0 0 1-2-.75 4.33 4.33 0 0 1-2-2.92 1.8 1.8 0 0 0-1.27-1.41h0a4.09 4.09 0 0 1-1.67-3.22 4.71 4.71 0 0 0-.49-1.19 5.22 5.22 0 0 1-.47-.84 1.48 1.48 0 0 1 0-1 6.64 6.64 0 0 0-.25-4.37h0a4.89 4.89 0 0 1 0-1.15 7 7 0 0 1 1.11-3.39 1.73 1.73 0 0 0 .14-1.33 2.52 2.52 0 0 1 .94-2.76 1.17 1.17 0 0 0 .47-1.22h0l.15-.32a3.73 3.73 0 0 1 1-1.48 2.83 2.83 0 0 1 .44-1 4.36 4.36 0 0 0 .24-.41 5.36 5.36 0 0 1 .4-.63l.22-.33.1.06-.22.34a4.12 4.12 0 0 0-.39.62l-.25.41a2.85 2.85 0 0 0-.43.95h0 0a3.5 3.5 0 0 0-1 1.44l-.14.31a1.29 1.29 0 0 1-.53 1.32 2.39 2.39 0 0 0-.88 2.63 1.81 1.81 0 0 1-.17 1.43 7 7 0 0 0-1.09 3.33 5.18 5.18 0 0 0 0 1.12 6.75 6.75 0 0 1 .25 4.45 1.35 1.35 0 0 0 0 .95 4.77 4.77 0 0 0 .46.83 4.34 4.34 0 0 1 .58 1.16 4 4 0 0 0 1.62 3.14 2 2 0 0 1 1.33 1.49 4.23 4.23 0 0 0 1.9 2.84 15.73 15.73 0 0 0 1.95.75 12.49 12.49 0 0 1 2.68 1.14A7.61 7.61 0 0 1 49.57 82a1.85 1.85 0 0 0 .58.39l.28.16h0a7 7 0 0 0 3.31 1.26 1.4 1.4 0 0 1 .8.27 2.21 2.21 0 0 1 .63 2.16 3.58 3.58 0 0 1-.85 1.58h0 0c0 .43-.06 1-.07 1.4s-.06.62-.1.92a6.88 6.88 0 0 0-.08 1.67l.42.69a8.08 8.08 0 0 1 .75 1.4l.1.29A5.65 5.65 0 0 0 57 97l.5.22a9.55 9.55 0 0 1 1.5.75l.57.36a3.85 3.85 0 0 1 1.58 1.36h0l.29 2.68a5.24 5.24 0 0 1 .72 3.5 5.32 5.32 0 0 0 .82 1.28 5.14 5.14 0 0 1 1.12 2.25 14.63 14.63 0 0 0 .69 4.68 4.91 4.91 0 0 0 .44.89 3.62 3.62 0 0 1 .62 2 12.18 12.18 0 0 0 .87 2.26l.41.93c.29.68.63 1.37 1.34 1.58a5.3 5.3 0 0 0 2.19.13 1.91 1.91 0 0 0 .83-.28 1.22 1.22 0 0 0-.27-1.24c0-.06-.11-.11-.17-.17-.4-.4-.9-.89-.62-1.64a6.93 6.93 0 0 0-1.1-2.7h0a.92.92 0 0 1 .22-1 2 2 0 0 0 .44-1.39 1.24 1.24 0 0 1 .83-1.21 1.79 1.79 0 0 0 1.37-1.32 2.82 2.82 0 0 1 2.49-2.37c.56 0 1.21-.17 1.34-.69a40.1 40.1 0 0 1 1.92-6.13h0a5.76 5.76 0 0 1 1.53-1.16 8.54 8.54 0 0 0 .87-.55l.44-.29a3.19 3.19 0 0 0 1.08-.94 8.15 8.15 0 0 0 1-2.54 15 15 0 0 1 2-5.32 1.37 1.37 0 0 0 0-.8 7.8 7.8 0 0 0-2.44-2.23l.07-.09A7.65 7.65 0 0 1 85 90a1.3 1.3 0 0 1 0 1 14.83 14.83 0 0 0-2 5.28 8.66 8.66 0 0 1-1 2.58 3.45 3.45 0 0 1-1.11 1l-.44.28-.87.56a5.73 5.73 0 0 0-1.5 1.13 39.79 39.79 0 0 0-1.92 6.11c-.14.59-.83.81-1.45.77a2.74 2.74 0 0 0-2.38 2.28 1.91 1.91 0 0 1-1.44 1.41 1.12 1.12 0 0 0-.75 1.11 2.13 2.13 0 0 1-.47 1.46.82.82 0 0 0-.2.85 6.78 6.78 0 0 1 1.12 2.74h0c-.27.69.19 1.13.59 1.52l.17.17a1.36 1.36 0 0 1 .29 1.39h0 0a2.32 2.32 0 0 1-.89.31 5.69 5.69 0 0 1-.91.05z" fill="url(#AX)"/><path d="M82.47 87.86a10.78 10.78 0 0 0-1.76-.23h0a6.45 6.45 0 0 1-1.2-.65 5.5 5.5 0 0 0-.81-.47 11.31 11.31 0 0 0-2-.11h-.46c-1.28 0-2-.4-2.28-1.22a7.38 7.38 0 0 0-3.53-1.85l-1.31-.81a14.82 14.82 0 0 0-3-1.59h0a6.27 6.27 0 0 0-3.21-1.76 4 4 0 0 1-.84.12h-.28c-.13.12-.26.22-.39.32a2.65 2.65 0 0 0-.62.58 1.08 1.08 0 0 1-1.31.44h0a1 1 0 0 0-1.17-.25l-1.57.82-.58.27a3.5 3.5 0 0 1-2.23.51v-.12a3.41 3.41 0 0 0 2.17-.49l.58-.27 1.57-.82a1.11 1.11 0 0 1 1.3.26 1 1 0 0 0 1.15-.41 2.82 2.82 0 0 1 .64-.6l.41-.33h0 0 .3a3.61 3.61 0 0 0 .83-.12h0a6.32 6.32 0 0 1 3.27 1.79 14.82 14.82 0 0 1 3 1.6l1.3.8a7.39 7.39 0 0 1 3.58 1.89h0c.24.77 1 1.15 2.17 1.16h.46a10.83 10.83 0 0 1 2 .1 6.47 6.47 0 0 1 .85.49 5.62 5.62 0 0 0 1.17.63 10.08 10.08 0 0 1 1.77.24z" fill="#bbdef6"/><g fill="#b2daf4"><path d="M53.91 72a6.63 6.63 0 0 1 1.1.16h2.36c.79.29 1.71.4 2.47.62a1.61 1.61 0 0 1 .68 1.08c0 .18-.18.32-.35.35a2.36 2.36 0 0 1-.44.07h-.12l-2.59-.67-3.82.55h-.06a1.1 1.1 0 0 1-1.13-.7 2.61 2.61 0 0 1 1.22-1.3l.18-.07a1.68 1.68 0 0 1 .5-.07m0-.12h0a1.8 1.8 0 0 0-.54.08l-.2.07a2.73 2.73 0 0 0-1.27 1.35h0 0a1.22 1.22 0 0 0 1.25.79h.06l3.79-.47a14.55 14.55 0 0 1 1.64.41l.93.26h.14a1.49 1.49 0 0 0 .36-.05h.1c.25 0 .48-.24.45-.49a1.66 1.66 0 0 0-.74-1.15h0 0l-1-.25a11 11 0 0 1-1.42-.37H55h-.27a4 4 0 0 0-.84-.11zm12.15 4l-1.74-.66h-2.19l-1.39-.4v-.11l1.74-.39v-.79l1.67-.42.82 1zm-3.91-.78h2.2l1.43.53-.9-1.44-.77-1-1.51.38v.8l-1.6.35z"/></g><path d="M51.45 78.33a1.68 1.68 0 0 1-.28-.24.8.8 0 0 0-.72-.33h-.19a.87.87 0 0 1-.67 0c-.15-.08-.12-.35-.06-.51a2.22 2.22 0 0 0 .14-1.65c-.15-.31-.31-.66-.76-.73a2 2 0 0 1-.83-.08 2.43 2.43 0 0 0-1.23.85 4 4 0 0 1-.47.45.72.72 0 0 1-.86-.08 1.14 1.14 0 0 1-.31-.57c0-.07-.05-.14-.07-.21v-1.15a2.35 2.35 0 0 0 0-.26 1.84 1.84 0 0 1 .15-.83 5.29 5.29 0 0 0 .61-2.28v-.08a.86.86 0 0 1 .21-.6 2.56 2.56 0 0 1 1.24-.47l.44-.1a4.36 4.36 0 0 1 3.21-.71A3.85 3.85 0 0 1 52.39 70l.16.18.16.21a1.64 1.64 0 0 0 1.31.85h0c.12 0 .27-.15.33-.3a1.65 1.65 0 0 0 0-.64 2.09 2.09 0 0 1 0-.25 7.11 7.11 0 0 0-.62-1.45l-.1-.19a1 1 0 0 1 0-.76 1 1 0 0 1 .52-.6 9.41 9.41 0 0 0 3.92-2.67l.31-.79a9 9 0 0 1 1.69-3.16h0A6.44 6.44 0 0 0 63 58.36h0a2.26 2.26 0 0 0 .53-1.38.34.34 0 0 0-.22-.33 1.49 1.49 0 0 0-1 0l-.24.1a1.28 1.28 0 0 1-.93.16.21.21 0 0 1-.16-.17.43.43 0 0 1 .12-.36 5.27 5.27 0 0 1 2.44-1.3h0l.83.31a8.86 8.86 0 0 0 .85.3 4 4 0 0 0 1.23-.42 1.29 1.29 0 0 0 .6-.86 2.44 2.44 0 0 0-.26-1.8 1 1 0 0 0-.6-.32l-.23-.08h0l-.11-.21a7.71 7.71 0 0 1-1-1.1h0a4.1 4.1 0 0 1-.13-1.08 5.89 5.89 0 0 0-.1-1 2.06 2.06 0 0 0-1.71-1.56 8.19 8.19 0 0 1-2.38.06c-.06 0-.21.12-.25.24l-.11.29a5.76 5.76 0 0 1-1.22 2.25 5.72 5.72 0 0 1-1.74 1l-.87.4c-.28.14-.43-.05-.55-.18l-.84-1a4.31 4.31 0 0 1-.69-.27 2.63 2.63 0 0 0-.35-.15c-.11 0-.46-.19-.39-.49a3.27 3.27 0 0 1 .19-.38 2.67 2.67 0 0 0 .17-.32 1.51 1.51 0 0 0 0-.52 1.68 1.68 0 0 1 0-.63h0a3.1 3.1 0 0 1 2.47-.59 2.23 2.23 0 0 0 2.8-1.53 1.16 1.16 0 0 1 .39-1 2 2 0 0 1 .66-.3 1.7 1.7 0 0 0 .66-.32.72.72 0 0 0 .2-.41v-.12a.83.83 0 0 1 .83-.67 1.71 1.71 0 0 1 .71.22 2 2 0 0 1 .62.95 3.27 3.27 0 0 0 .14.33 1.74 1.74 0 0 0 1.17 1.11A.4.4 0 0 0 65 45a5.54 5.54 0 0 0 .79-3.54 2.15 2.15 0 0 0-.12-.39c-.15-.4-.73-.65-1.48-.65h-.06a12 12 0 0 1-1.41-1.16l-.42-.39a2.65 2.65 0 0 1-.79-1h-.19a.61.61 0 0 1-.27 0l-.33-.2a2 2 0 0 0-.59-.31 2.48 2.48 0 0 0-.82 0h-.21 0 0a9.29 9.29 0 0 0-.55-.95l-.54-.94h-.07c-.07 0-.13 0-.17-.1h.12.06a.18.18 0 0 1 .17.09c.14.29.33.6.53.93a9.74 9.74 0 0 1 .54.93h.17a2.54 2.54 0 0 1 .87 0 2.27 2.27 0 0 1 .62.32l.31.19a.37.37 0 0 0 .21 0c.12 0 .26 0 .31.13a2.58 2.58 0 0 0 .76.91l.42.39a11.31 11.31 0 0 0 1.34 1.04h0c.8 0 1.42.28 1.59.72a3.67 3.67 0 0 1 .13.43 5.68 5.68 0 0 1-.81 3.62.51.51 0 0 1-.56.2 1.83 1.83 0 0 1-1.25-1.17 3.45 3.45 0 0 1-.14-.34 1.92 1.92 0 0 0-.58-.89 1.48 1.48 0 0 0-.65-.2.71.71 0 0 0-.71.58v.12a.77.77 0 0 1-.23.47 1.87 1.87 0 0 1-.71.34 2 2 0 0 0-.61.28 1 1 0 0 0-.35.92h0A2.35 2.35 0 0 1 56.34 47a3 3 0 0 0-2.34.54 1.57 1.57 0 0 0 0 .57 1.52 1.52 0 0 1 0 .56 2 2 0 0 1-.18.35 2.64 2.64 0 0 0-.17.35c0 .14.07.25.32.35l.34.15a4.84 4.84 0 0 0 .7.27h0l.86 1a.48.48 0 0 0 .41.16 8.76 8.76 0 0 1 .88-.4 5.83 5.83 0 0 0 1.7-1A5.56 5.56 0 0 0 60 47.82c0-.1.07-.19.11-.29s.24-.34.38-.32a7.91 7.91 0 0 0 2.34-.06h0a2.18 2.18 0 0 1 1.81 1.65 5.37 5.37 0 0 1 .11 1 3.69 3.69 0 0 0 .12 1 6.47 6.47 0 0 0 1 1.09l.18.17.21.06a1.13 1.13 0 0 1 .65.37 2.49 2.49 0 0 1 .28 1.89 1.42 1.42 0 0 1-.65 1 4.39 4.39 0 0 1-1.28.43h0c-.27-.08-.56-.19-.87-.31l-.81-.3a5.13 5.13 0 0 0-2.37 1.27.3.3 0 0 0-.09.25s0 .06.09.07a1.17 1.17 0 0 0 .84-.14l.24-.11a1.66 1.66 0 0 1 1.08 0 .47.47 0 0 1 .31.45 2.35 2.35 0 0 1-.55 1.44h0a6.52 6.52 0 0 1-3 2.1 8.83 8.83 0 0 0-1.66 3.11l-.32.81h0a9.47 9.47 0 0 1-4 2.71.93.93 0 0 0-.46.53.83.83 0 0 0 0 .67l.11.19a7.75 7.75 0 0 1 .74 1.45h0a1.93 1.93 0 0 0 0 .24 1.73 1.73 0 0 1-.06.69c-.07.18-.25.38-.43.38h0a1.74 1.74 0 0 1-1.4-.9l-.16-.2c-.06-.06-.11-.13-.16-.19A4 4 0 0 0 51 68.86a4.22 4.22 0 0 0-3.15.7h0l-.46.1a2.53 2.53 0 0 0-1.18.44.79.79 0 0 0-.17.53v.08a5.38 5.38 0 0 1-.63 2.33 1.69 1.69 0 0 0-.13.77v.26 1.13c0 .07 0 .14.07.2a1 1 0 0 0 .28.52.6.6 0 0 0 .71.08 4.65 4.65 0 0 0 .45-.44 2.53 2.53 0 0 1 1.31-.89h0a1.74 1.74 0 0 0 .8.08h0a1.15 1.15 0 0 1 .86.8 2.32 2.32 0 0 1-.14 1.74c-.06.15-.06.34 0 .37a.8.8 0 0 0 .59 0h.21a.86.86 0 0 1 .81.35 1.79 1.79 0 0 0 .26.23z" fill="#bfcae3"/><path d="M115.15 106.66h0a.73.73 0 0 1-.34-.86 9 9 0 0 1 .28-1 7 7 0 0 0 .37-1.71 28.62 28.62 0 0 1-.57-4.6h0c0-.19.11-.39.18-.59a5.36 5.36 0 0 0 .33-1.85l-1.47-3.51a2 2 0 0 1 .44-1.47c.56-.67.25-1.94.05-2.77v-.08l-.31-1.45a14.81 14.81 0 0 0-.74-2.81 4.14 4.14 0 0 1-1.18-2.59l-.06-.2c-.28-1.07-.58-2.17-1.5-2.6v-.11c1 .46 1.27 1.58 1.57 2.67l.06.22a4 4 0 0 0 1.15 2.53h0a14.7 14.7 0 0 1 .76 2.85l.31 1.44v.08c.21.86.52 2.16-.08 2.87a1.83 1.83 0 0 0-.41 1.38l1.5 3.5a5.11 5.11 0 0 1-.33 1.89 4.69 4.69 0 0 0-.17.58 28.36 28.36 0 0 0 .57 4.58h0a6.57 6.57 0 0 1-.38 1.74l-.28 1a.62.62 0 0 0 .28.73l2.8-.26 2.86-.27a1.87 1.87 0 0 0 1-.34 5.69 5.69 0 0 1 2-2.6 5 5 0 0 1 1.06-2.1 5.91 5.91 0 0 1 .81-.69 6.14 6.14 0 0 0 .79-.66c.13-.46.23-1 .33-1.46a10.07 10.07 0 0 1 .53-2c.47-1.08 4.66-4.91 4.83-5.07l.08.09s-4.35 4-4.8 5a9.78 9.78 0 0 0-.52 2l-.34 1.49h0a6.49 6.49 0 0 1-.8.69 5.17 5.17 0 0 0-.8.67 4.94 4.94 0 0 0-1 2.08h0 0a5.49 5.49 0 0 0-1.94 2.58h0a2.11 2.11 0 0 1-1.13.37l-2.86.27-2.82.26z" fill="#91a7cf"/><path d="M101.07 80.46h-.6c-1.55-.13-2.29-1.16-3-2.15l-.08-.1a6.71 6.71 0 0 1-.49-.87 6.6 6.6 0 0 0-.52-.9l-.71-.73a2.92 2.92 0 0 1-1.84-2.74v-.57a15 15 0 0 1 .08-2.7l.41-2.76.15-1a5.39 5.39 0 0 1 .75-2.94l.22-.46v-.19a7.7 7.7 0 0 1 .69-2.92h0 0a5.82 5.82 0 0 1 1.29-.13c.49 0 1 0 1.61-.11 1.14-.15 2.31-1.89 2.32-1.91a6.69 6.69 0 0 1 5.87-2.28c3.85.23 5 1.45 5.22 2.45s1.83 1 3.12 1a3.09 3.09 0 0 1 2.55 1.24c.19 0 1.46.25 2.41.46h.37c.04 0-.15-.5-.32-.78a3.12 3.12 0 0 1-.26-.52 4 4 0 0 1-.23-2 .3.3 0 0 1 .14-.19c.38-.21 1.43.17 2.44.54a13.14 13.14 0 0 0 1.41.46.64.64 0 0 0 .61-.1c.22-.25.06-.75.06-.76h0 0a.87.87 0 0 1 .28-.08.41.41 0 0 0 .16 0l.06.11a.68.68 0 0 1-.21.05.67.67 0 0 0-.19 0 1 1 0 0 1-.1.81.72.72 0 0 1-.73.14 11.28 11.28 0 0 1-1.42-.46c-.94-.34-2-.73-2.34-.55a.18.18 0 0 0-.08.11 3.92 3.92 0 0 0 .22 1.91 2.67 2.67 0 0 0 .26.49c.22.37.44.73.3.91s-.22.13-.48.07l-2.44-.47h0 0a3 3 0 0 0-2.46-1.21c-1.94.09-3-.26-3.23-1-.25-1-1.34-2.14-5.12-2.36a6.54 6.54 0 0 0-5.71 2.3c0 .07-1.21 1.8-2.41 2-.56.07-1.12.09-1.61.11a7 7 0 0 0-1.24.11 7.92 7.92 0 0 0-.66 2.85v.22l-.23.48a5.26 5.26 0 0 0-.74 2.79l-.15 1-.41 2.76a13.78 13.78 0 0 0-.08 2.67v.58a2.81 2.81 0 0 0 1.79 2.64h0l.72.74a6.62 6.62 0 0 1 .54.93 6.42 6.42 0 0 0 .48.85l.08.1c.72 1 1.41 2 2.91 2.11a8.31 8.31 0 0 0 3.18-.42h0a6.11 6.11 0 0 0 2.84-.7 12.24 12.24 0 0 0 1.08-.4 5.94 5.94 0 0 1 2.42-.61 1.07 1.07 0 0 1 .51.17l.11.05v.11l-.11-.06a1.13 1.13 0 0 0-.46-.15h0a6 6 0 0 0-2.38.6 10.33 10.33 0 0 1-1.07.4 6.33 6.33 0 0 1-2.86.71h0a9 9 0 0 1-2.69.25z" fill="url(#AY)"/><path d="M96.06 59.08h0 0l-2-.66a2.75 2.75 0 0 0-.39 0c-.71.09-1 .11-1 0a2.59 2.59 0 0 0-.37-.42 2.34 2.34 0 0 1-.52-.86h0c0-.28-.17-.33-.52-.39a1.27 1.27 0 0 1-.93-.45 1.49 1.49 0 0 1-.07-.47c0-.24 0-.56-.09-1v-.1a2.54 2.54 0 0 0-.42-1.35l-.29-.35c-.79-.94-1.16-1.42-1.09-1.59a.1.1 0 0 1 .07-.07l1.5-1.09a19.26 19.26 0 0 1 3-.29 14.35 14.35 0 0 0 2-.34c-.3-.47-2.08-3.11-3.72-3.56l-1.1-.28c-.8-.19-1.28-.31-1.35-.57s0-.3.23-.5a1.92 1.92 0 0 1 1.55-.6l.64-.85.58-.87.36-1.07-.22-1.19.78-1-2.07-2.07.83-.34 1.15.31.22.52.63.49c.53 0 1.88 0 2.09-.24a.2.2 0 0 1 .07-.19c.23-.2 1.06.06 1.23.11l.85-.39-1.66-1.44.41-.54-.93-.06-.88-.74-1.45-.14-2.93-1-1.89-.94h-.59l.92.49L90.1 34l1.47.22 2.2 1.78 1 .85-.6.43-1.42-.6L90 35.64c-.18.2-1.18 1.21-2.09.79a19.69 19.69 0 0 1-1.88-1h0l-.69-1a.55.55 0 0 1-.06-.41 4.78 4.78 0 0 0 .42-2.46 0 0 0 0 1 0 0 .32.32 0 0 1-.06-.34.19.19 0 0 1 .1-.1s.08-.05.09-.1h.12a.24.24 0 0 1-.15.18h0a.23.23 0 0 0 0 .24.16.16 0 0 1 0 .08 4.91 4.91 0 0 1-.48 2.48.42.42 0 0 0 .05.31c.21.36.46.71.68 1l1.86 1c.9.42 2-.78 2-.79h0l2.88 1.11 1.36.57.43-.3-.9-.75-2.18-1.82-1.46-.23-1.39-.95-1.27-.67 1-.09 1.91 1 2.92 1 1.47.15.87.73 1.11.08-.47.63 1.71 1.48-1.05.49h0c-.37-.12-1-.27-1.15-.14a.08.08 0 0 0 0 .08.17.17 0 0 1 0 .15c-.29.33-2 .29-2.2.28h0l-.69-.53-.21-.5-1-.28-.63.25 2 2-.97 1.01.22 1.15-.38 1.13-.58.88-.68.91h0a1.81 1.81 0 0 0-1.48.57c-.17.16-.23.29-.21.38s.56.31 1.27.48l1.1.28c1.83.52 3.76 3.55 3.84 3.68v.07h-.08a13.91 13.91 0 0 1-2.13.37 19.83 19.83 0 0 0-3 .28l-1.51 1.09A7.08 7.08 0 0 0 89.54 53l.29.36a2.65 2.65 0 0 1 .45 1.41v.1c0 .39.07.71.09 1a1.7 1.7 0 0 0 .05.41 1.16 1.16 0 0 0 .85.4c.33.06.64.11.62.51a2.38 2.38 0 0 0 .49.81 2 2 0 0 1 .3.41 4.2 4.2 0 0 0 .91-.07c.37-.05.42-.05.46 0l1.94.65a2.31 2.31 0 0 1 1.9-1.42c1-.08 1-.55 1-.57l.22-1.62-.29-1.54-.52-1.71.39-1.43.85-1a1.88 1.88 0 0 1-.4-1.35 1 1 0 0 1 .6-.64 9.48 9.48 0 0 1 1.51-.47c.58-.14 1-.26 1-.48a.15.15 0 0 1 .08-.15c.17-.1.58.13 1.19.5a5 5 0 0 0 .66.37 4.61 4.61 0 0 1 .55.26 7.32 7.32 0 0 0 2.83 1A8.48 8.48 0 0 1 111 50h0l1.19 1.31-.56-1.46.42-.22a4.51 4.51 0 0 0-1.41-1c-.87-.38-3.15-1.15-3.17-1.16l-2.47-1.4-1.08-1.07.06-.1a31.47 31.47 0 0 0 3.6 1.08 29 29 0 0 1 4 2.26l1.78 1.31 1.26 1.33a12.06 12.06 0 0 0 1.67 1.3l.25.07c.33.1 1.08.34 1.22.24h0a6.32 6.32 0 0 0-.5-1.36L116 49.85l-.58-1.56.68.41 1.06 1.3 1.38 1.07 1 .31.63.73.64-.82 1 .08 1 1.82.13-.13.08.08-.23.25-1.06-1.9-.82-.08-.69.89-.7-.82-1-.31-1.4-1.09-1.12-1.29-.37-.22.46 1.22 1.3 1.21a6.54 6.54 0 0 1 .52 1.42.11.11 0 0 1-.06.11c-.17.13-.72 0-1.32-.21l-.25-.08a12 12 0 0 1-1.72-1.24l-1.26-1.32-1.76-1.31a27.71 27.71 0 0 0-4-2.23 31.24 31.24 0 0 1-3.39-1l.92.89 2.43 1.39 3.17 1.16a4.63 4.63 0 0 1 1.5 1.1l.05.06-.47.24.65 1.65-.1.06-1.4-1.54a8.65 8.65 0 0 0-3.28-1.3 7.4 7.4 0 0 1-2.89-1 5.23 5.23 0 0 0-.53-.25 5.28 5.28 0 0 1-.68-.38c-.38-.23-1-.57-1.07-.5s0 0 0 0c0 .32-.47.43-1.13.6a8.62 8.62 0 0 0-1.49.46.85.85 0 0 0-.54.56 1.87 1.87 0 0 0 .41 1.28h0l-.91 1-.37 1.37.58 1.77.29 1.56-.22 1.68s-.09.59-1.16.67A2.18 2.18 0 0 0 96.12 59v.06z" fill="url(#AZ)"/><path d="M111.73 51.59l.85.93-.15.62-2.09-.54-.16-.85 1.55-.16m0-.11h0l-1.55.15h-.11v.11l.16.86v.06h.06l2.09.54h.1v-.11l.15-.61v-.06h0l-.85-.93h0z" fill="#99add2"/><g fill="#a5b6d7"><path d="M105.21 50.65l.7.07 1.39 1.48.08.92-1.08-.31-1.3-1.7.23-.46m-.06-.11v.06l-.23.47h0v.05l1.32 1.71h0 0l1.08.31h.15V53l-.07-.93h0 0L106 50.65h0 0l-.69-.08zm-1.01-1.9L105 50h-.54l-.93-1.16.62-.16m0-.12h-.08l-.62.16h-.15l.1.12.93 1.16h0 .78l-.1-.16-.85-1.31v-.07z"/></g><g fill="#bfcae3"><path d="M85.72 41.6l.7.45.64.49.25.55-1 .65-.94-.05v-.8l-.5-.25-.15-.39.3-.1v-.4l.74-.15m0-.11h0l-.74.15h-.08v.41l-.23.08h-.1v.1l.15.4h0 0l.44.22v.83h.1l.94.05h.06l1.05-.65h.08V43l-.25-.55h0 0l-.7-.45-.7-.46h0zM85 39.28l.74.41h.89l.23.82.56.06.88.46 1.21.51 1 .16.28.41.42.56-1.21.46-1.58 1 .23-1-.7-.25v-.52l-.61-.56.7.1-.37-.56-.84-.11-.7.16-.37-.36-.28-.67-.84-.62.38-.51m0-.13l-.06.07-.37.51-.06.09.08.06.82.6.27.64h0 0l.37.36h0 .06l.68-.15.77.09.22.34-.47-.07H87l.24.22.58.54v.6h.06l.62.22-.21.89-.06.25.21-.14 1.58-1 1.2-.46.12-.05-.08-.11-.44-.6-.27-.4h0 0l-1-.15-1.2-.51-.87-.46h0-.49l-.21-.76v-.07h-.93l-.72-.4h-.08zm-7.93 2.11h0a6 6 0 0 1 1.63.69c.18.12.36.43.15.61A4 4 0 0 1 78 43h-1a2.52 2.52 0 0 1-1.14-.67 2.81 2.81 0 0 1 .88-1 1.14 1.14 0 0 1 .33-.08m0-.12h0a1 1 0 0 0-.39.1 2.9 2.9 0 0 0-.93 1.09v.07l.05.06a2.56 2.56 0 0 0 1.19.7h1.11a3.7 3.7 0 0 0 .9-.55.38.38 0 0 0 .14-.33.66.66 0 0 0-.3-.47 5.71 5.71 0 0 0-1.66-.7z"/></g><path d="M72.53 31.87c0 .22-.27.46-.07.64h.1a.25.25 0 0 1 .22.17 3.51 3.51 0 0 0 1.77 1.81 3.88 3.88 0 0 0-.55 1.26c.26.45.81.67 1.22 1a1.8 1.8 0 0 1 .36.52 1.48 1.48 0 0 1-.21 1.33 3.92 3.92 0 0 0-.26.85 16.42 16.42 0 0 1-1.34 3c-.3.42-.56.9-.81 1.31a.45.45 0 0 1-.33.2h-.03L69.67 43a2.86 2.86 0 0 1-1.18-1.35 8.64 8.64 0 0 1-.66-1 1.24 1.24 0 0 1 0-.87 1.82 1.82 0 0 0-.07-1.2 2.08 2.08 0 0 1 .24-1.94 1.44 1.44 0 0 0 .33-.74c0-.16-.2-.14-.31-.16h-.44-.24c-.18-.07-.22-.29-.38-.41h-.08c-.11 0-.06-.19 0-.24A6.31 6.31 0 0 1 68 32.61a.36.36 0 0 1 .27-.11h.09a3.42 3.42 0 0 0 .45 0 1.18 1.18 0 0 0 .68-.19l2.36-.3s.09-.1.13-.1h.23a.76.76 0 0 0 .35-.07m.16-.23l-.22.12a.56.56 0 0 1-.29.06h-.25a.41.41 0 0 0-.17.11l-1.31.17-1 .12h0a1.09 1.09 0 0 1-.62.17h-.44-.1a.46.46 0 0 0-.36.16 6.61 6.61 0 0 0-1.12 2.52.4.4 0 0 0 0 .32.17.17 0 0 0 .15.07H67l.08.13a.59.59 0 0 0 .28.26 1 1 0 0 0 .28 0h.52.12a1.4 1.4 0 0 1-.31.67 2.23 2.23 0 0 0-.3 2 1.68 1.68 0 0 1 .08 1.12 1.35 1.35 0 0 0 0 1 3.25 3.25 0 0 0 .39.62 2.48 2.48 0 0 1 .27.39v.06a2.88 2.88 0 0 0 1.21 1.34l2.94.93h.09a.55.55 0 0 0 .43-.24l.2-.33a8.93 8.93 0 0 1 .61-1 16.79 16.79 0 0 0 1.35-3c0-.13.07-.25.1-.36a1.25 1.25 0 0 1 .15-.45 1.58 1.58 0 0 0 .21-1.44 1.68 1.68 0 0 0-.4-.58l-.3-.18a2.25 2.25 0 0 1-.8-.65 1.87 1.87 0 0 1 .3-.78l.21-.42v-.1l-.08-.05h0a3.37 3.37 0 0 1-1.7-1.73.37.37 0 0 0-.33-.26h-.1a.46.46 0 0 1 .07-.25 1.83 1.83 0 0 0 .08-.25v-.24z" fill="#bac6e0"/><circle class="Ar" cx="79.61" cy="83.75" r="53.17" opacity=".55" fill="url(#Aa)"/><path d="M99.54 133a2.36 2.36 0 0 0-.41-.25l-.2-.1a12.24 12.24 0 0 0-1.74-.85l-.39-.14a13.93 13.93 0 0 0-5.12-1.18 5.27 5.27 0 0 0-1.08.36l-.76.28h0l-.68-.13a7 7 0 0 0-2.64-.2l-4.6 1.66c-.15.13-.4.09-.6.07s-.61-.11-.9-.17a6 6 0 0 0-1.23-.2 3.64 3.64 0 0 1-2.77-1.41h0c0-.15-.08-.32-.12-.5a3.69 3.69 0 0 0-.52-1.45 1 1 0 0 1-.21-.85 4.47 4.47 0 0 1 .39-1l.2-.44c.05-.13 0-.15 0-.2a.14.14 0 0 0-.12 0 3 3 0 0 0-1.82 2.17 2.27 2.27 0 0 1-.64 1.27l-.2.22a4.39 4.39 0 0 1-2.91 1.76h0a7.57 7.57 0 0 0-1.89-.18l-.82-.21a9.86 9.86 0 0 0-3.07-.46l-2.32.36a3.9 3.9 0 0 0-3 1.67h-.11a4 4 0 0 1 3.12-1.75l2.33-.36a10 10 0 0 1 3.11.47l.8.2a7.74 7.74 0 0 1 1.9.18 4.31 4.31 0 0 0 2.82-1.72l.21-.22a2.23 2.23 0 0 0 .61-1.21 3.14 3.14 0 0 1 1.88-2.26.24.24 0 0 1 .25 0 .26.26 0 0 1 0 .32c0 .13-.12.29-.2.45a4.28 4.28 0 0 0-.38 1 .88.88 0 0 0 .19.75 3.85 3.85 0 0 1 .54 1.49c0 .18.07.35.11.48a3.55 3.55 0 0 0 2.61 1.28 6.78 6.78 0 0 1 1.26.2 7.88 7.88 0 0 0 .87.17c.19 0 .42 0 .53-.05h0l4.62-1.66a7.27 7.27 0 0 1 2.7.19c.23 0 .44.1.66.13l.73-.27a5.88 5.88 0 0 1 1.12-.37 13.91 13.91 0 0 1 5.17 1.19l.39.14a12 12 0 0 1 1.76.85l.19.11c.3.15.44.23.47.31z" fill="#9b9db7"/><path d="M79.53,30.59a52.83,52.83,0,0,1,20.69,4.18,55.43,55.43,0,0,1,16.9,11.39A53.21,53.21,0,1,1,79.53,30.59m0-.59a53.75,53.75,0,1,0,53.75,53.75A53.75,53.75,0,0,0,79.53,30Z" fill="#ad8700"/><g fill="#223a73"><path d="M66.77 65.92v1.31c-3.78.48-4.1 1.69-4.1 4.2v30.92H61.2L37.85 73.9h-.11v21c0 3.78 1.1 4.77 5 5.19v1.32H30.81v-1.32c3.15-.36 4.62-.73 4.62-4.19V71c-2.94-3.62-3.78-3.79-4.46-3.79v-1.29H42l18.26 22.42h.1V72.43c0-3.15-.63-4.88-4.88-5.2v-1.31h11.29m.48-.49H55v2.26h.45c3.82.28 4.43 1.62 4.43 4.71v14.69L42.42 65.62l-.14-.19h-11.8v2.29H31c.43 0 1.14 0 4 3.47V95.9c0 3.07-1.07 3.35-4.19 3.71h-.43v2.24h12.83v-2.19h-.43c-3.74-.41-4.55-1.24-4.55-4.71V75.14l22.6 27.52.14.18h2.19V71.43c0-2.25.15-3.27 3.67-3.71h.42v-2.29zm26.01-.35v11.39h-1.47c-.94-3.67-4.09-9.71-10.28-9.71-2.73 0-5.62 1.58-5.62 5 0 2.83 1 4 5.41 6.19l7.7 3.82a10.87 10.87 0 0 1 5.78 9.66c0 4.62-3.36 11-13 11-5 0-7.35-1.79-9-1.79-1.1 0-1.36.94-1.57 1.79H69.7v-13h1.52c1 5.3 4.09 11.23 10.76 11.23 6.3 0 6.56-5.19 6.56-5.88 0-3.51-2.47-4.77-5.88-6.4l-3.51-1.68c-9-4.3-9-8.82-9-11.23 0-3.2 1.63-10.34 11.6-10.34 4.2 0 6.66 1.73 8.19 1.73 1.2 0 1.47-.79 1.73-1.79h1.57m.49-.48h-2.42l-.09.36c-.28 1-.45 1.42-1.26 1.42a7.26 7.26 0 0 1-2-.52 17.83 17.83 0 0 0-6.19-1.21c-4.5 0-7.84 1.4-9.93 4.16a11.36 11.36 0 0 0-2.16 6.67c0 2.53 0 7.23 9.25 11.67l3.52 1.68c3.58 1.71 5.6 2.83 5.6 6 0 .55-.17 5.39-6.07 5.39-7.34 0-9.64-7.58-10.28-10.84l-.08-.37h-2.41v13.94h2.39l.09-.37c.25-1 .46-1.41 1.1-1.41a6.94 6.94 0 0 1 2 .51 19.74 19.74 0 0 0 7 1.27c4.44 0 8.07-1.35 10.48-3.9a11.13 11.13 0 0 0 3-7.56 11.37 11.37 0 0 0-6-10.09l-7.71-3.83c-4.47-2.24-5.14-3.29-5.14-5.76 0-3.09 2.66-4.5 5.13-4.5 7.2 0 9.57 8.39 9.81 9.34l.1.37h2.33V64.6zm33.9 1.33v10.55h-1.25c-1.16-5.45-2.58-8.76-11.61-8.76-2.83 0-3.77.21-3.77 2.47v12.17h.26c6.27 0 7-3.68 7.77-7.82h1.31v17.74H119c-.58-4.3-1.42-8.13-8-8.13v12.23c0 3.46 2.1 3.57 5.77 3.72v1.32H97.88v-1.32c3-.31 4.61-.47 4.61-3.72V71c0-3.46-2.15-3.56-4.61-3.73v-1.35h29.75m.49-.49H97.39v2.26h.45.08c2.46.16 4.09.26 4.09 3.23v25.45c0 2.8-1.13 2.92-4.15 3.24h0-.44v2.24h19.87v-2.22h-.47c-3.94-.17-5.3-.38-5.3-3.24V84.63c5.6.17 6.47 3.32 7.06 7.71v.42h2.23V74.05h-2.21l-.07.4c-.69 3.93-1.29 7.33-7.06 7.41V70.18c0-1.74.4-2 3.28-2 4.13 0 6.8.7 8.43 2.2 1.45 1.35 2.09 3.29 2.7 6.17l.12.45h2.14V65.43z"/></g><path d="M30.8 101.07c2.85-.37 5.42-2.19 5.42-5.69V73.93c-3-3.66-3.82-4.07-4.51-4.07V66.6H42.9l18.39 22.64h.11v-15.4c0-3.18-2-4.82-6.2-4.82v-2.45h13v2.34c-3.3.13-4.13 1.23-4.13 3.77v31.35h-3.56L39.87 78.41v16.57c.12 3.93 1.37 5.82 4.52 5.82v2.76h-13.6z" fill="url(#Ab)"/><path d="M92.28,78.09c-1-3.71-4.53-9.13-9.78-9.25-2.34,0-5.09,1-5.08,3.7s1.93,4,6.38,6.25l6.28,3.49A12.33,12.33,0,0,1,96.3,92.64c0,4.66-3.06,11.91-13.54,11.61-3.87-.12-7.42-2-9.06-2-1.12,0-1.38,1-1.59,1.8H70.57V89.33h1.88c1.06,5.35,4.24,11.14,10.53,11.14,4.54,0,5.53-2.94,5.53-3.63,0-3.55-1.4-4.89-4.85-6.54l-3.55-1.7c-9.06-4.34-9.06-9.64-9.06-12.08,0-3.23,1.64-10.44,11.71-10.44,4.25,0,6.13,1.75,7.67,1.75,1.22,0,1.48-.8,1.75-1.81h2.6V78.09Z" fill="url(#Ac)"/><path d="M98 66.72h31.2v11.37h-2.72c-1.16-6.23-4.42-8.72-10.09-8.72-2.86 0-3.42.21-3.42 2.49v11.45c6.57.11 6.18-3.66 6.93-7.9h1.93v18.46h-1.93c-.59-4.89-2.82-8-7-8V96.6c0 3.5 2 3.91 5.67 4.07v2.94h-20v-2.94c3-.32 4.67-.78 4.67-4.07V72.86c0-3.49-2.18-3.6-5.2-3.76z" fill="url(#Ad)"/><g fill="#fff"><path d="M30.81 100.09c3.15-.36 4.62-.73 4.62-4.19V71a26.58 26.58 0 0 0-2.32-2.6C32 67.31 31.42 67.23 31 67.23v-1.31h11l18.26 22.42h.1V72.43c0-1.86-.22-3.23-1.28-4.1a6.32 6.32 0 0 0-3.6-1.1v-1.31h11.29v1.31c-3.78.48-4.1 1.69-4.1 4.2v30.92H61.2L37.85 73.9h-.11v21c0 3.78 1.1 4.77 5 5.19v1.32H30.81zm60.98-23.62c-.94-3.67-4.09-9.71-10.28-9.71-2.73 0-5.62 1.58-5.62 5a6 6 0 0 0 .29 2 3.81 3.81 0 0 0 .75 1.28 14.06 14.06 0 0 0 4.37 2.87l7.7 3.86a10.87 10.87 0 0 1 5.78 9.66c0 4.62-3.36 11-13 11-5 0-7.35-1.79-9-1.79-1.1 0-1.36.94-1.57 1.79H69.7v-13h1.52a20.23 20.23 0 0 0 1.65 5 12.32 12.32 0 0 0 3 4 9.09 9.09 0 0 0 6.11 2.2c6.3 0 6.56-5.19 6.56-5.88 0-3.51-2.47-4.77-5.88-6.4l-3.51-1.68c-3.73-1.75-5.91-3.57-7.15-5.27a8.91 8.91 0 0 1-1.79-5.92c0-3.2 1.63-10.34 11.6-10.34 4.2 0 6.66 1.73 8.19 1.73 1.2 0 1.47-.79 1.73-1.79h1.57v11.39zm6.09-10.55h29.75v10.55h-1.25c-1.16-5.45-2.58-8.76-11.61-8.76-2.83 0-3.77.21-3.77 2.47v12.17c6.51.11 7.29-3.62 8-7.82h1.31v17.74H119c-.58-4.3-1.42-8.13-8-8.13v12.23c0 3.46 2.1 3.57 5.77 3.72v1.32H97.88v-1.32c3-.31 4.61-.47 4.61-3.72V71c0-1.84-.61-2.73-1.55-3.19a8.72 8.72 0 0 0-3.06-.54z"/></g><path d="M66.77 67.23v-.5c-1.55.13-3 .11-3.81.7-1.09.78-1.37 2.14-1.37 3.9v29.9L38.87 73.59a1.45 1.45 0 0 0-1.4-.71c-.68.17-.64.57-.64 1.09v20.62a5.52 5.52 0 0 0 1.67 3.83s-.79-.85-.76-3.63V73.91h.08l23.38 28.44h1.47V71.12c0-2 .61-2.59.9-2.83a5.92 5.92 0 0 1 3.2-1.06z" fill="url(#Ae)"/><path d="M42.73 101.41H30.81v-.34l4-.83h3.8l4.13.81z" fill="url(#Af)"/><path d="M116.77,101.41H97.88v-.27a50,50,0,0,0,5.27-1.11,28.46,28.46,0,0,1,7.92.09c1.53.44,5.7,1,5.7,1Z" fill="url(#Ag)"/><g fill="#e6e6e6"><path d="M35.43 71L33 68.3c-1.09-1-1.65-1-2-1.07v-.79c2 0 2.36.79 2.73 1.41l1.7 3.15zm24.92 1.22c0-1.88-.43-3.11-1.37-3.88a6.36 6.36 0 0 0-3.5-1.11v-.49c1.62.12 3.11.24 4 1a3 3 0 0 1 1 2.26 10.33 10.33 0 0 1-.13 2.22z"/></g><path d="M81.39 102.4a19.25 19.25 0 0 1-6.47-1.26 7.5 7.5 0 0 0-2.1-.52 1.24 1.24 0 0 0-1.11.53 3.53 3.53 0 0 0-.49 1.26h-.37a4.85 4.85 0 0 1 .21-1.5c.38-1.18 1-1.61 1.82-1.49.59.08 1.19.69 2.15 1.11a15.21 15.21 0 0 0 6.36 1.71 11.62 11.62 0 0 0 9.3-4.1 11.85 11.85 0 0 0 3-7 13.84 13.84 0 0 0-2-7.34 10.72 10.72 0 0 1-.06 15.14c-1.98 1.96-5.27 3.54-10.24 3.46z" fill="url(#Ah)"/><g fill="#e6e6e6"><path d="M71.73 93.6c-.71-1.39-.53-2.07-.78-4.16h.27a21.07 21.07 0 0 0 1.18 4 12.94 12.94 0 0 0 1 2.08 14.6 14.6 0 0 0 1.4 2 19.93 19.93 0 0 1-3.07-3.92zm16.58-.52c-.79-2.13-2.2-3-5.45-4.59l-3.52-1.68c-3.36-1.59-7.21-4-8.51-7.37a19.4 19.4 0 0 0 3.9 3.71 74.6 74.6 0 0 0 8.19 4.15 10.61 10.61 0 0 1 4.21 3.24 5 5 0 0 1 1.18 2.54z"/></g><path d="M93.27 76.47h-1.48l-.09-.36a16 16 0 0 0-3.57-6.42 9.18 9.18 0 0 0-6.42-2.92c-2.66 0-4.68 1.27-5.39 2.89a5.82 5.82 0 0 0-.32 3.18 4.15 4.15 0 0 0 1.19 2.47A4.32 4.32 0 0 1 75.41 73a5.41 5.41 0 0 1-.08-3.69c.57-1.54 2.38-3.62 6.17-3.62 3.26 0 5.3 1.76 6.86 3.67a20.72 20.72 0 0 1 3.46 6.91H93a10.81 10.81 0 0 1-.88-3.07 37.25 37.25 0 0 1 .07-5.2 15.25 15.25 0 0 1 .81-2.9h.27z" fill="url(#Ai)"/><path d="M111 97a3.05 3.05 0 0 1-1.35-2.35c-.14-1.26 0-6.88 0-9.24a1.35 1.35 0 0 1 .85-1.36 3.7 3.7 0 0 1 1.12-.15c4.06.07 5.73 1.18 6.72 3.87a16.12 16.12 0 0 1 .91 3.77h.83c0-1-.84-4.57-.85-5.17a56.64 56.64 0 0 1 0-6.59 39.81 39.81 0 0 1 .85-5.22h.25v17.71H119l-.06-.44a14.67 14.67 0 0 0-1-4c-1-2.36-3-3.68-7-3.71v10.37c.06.69.06 2.51.06 2.51z" fill="url(#Aj)"/><path d="M111 82.35a7.93 7.93 0 0 1-1.09-3.1l-.24-9.19c0-2.89 2.46-3.22 4.9-3.22 4 0 7.89.49 9.71 2.72 1.39 1.7 2.14 6.79 2.14 6.79h.58l-.57-8.57a3.53 3.53 0 0 1 .82-1.86h.36v10.55h-1.28s-.13-.67-.37-1.63a10.42 10.42 0 0 0-2.12-4.44c-1.83-2-5-2.73-9.32-2.68-2.87 0-3.51.43-3.56 2.28z" fill="url(#Ak)"/><path d="M102.49 70.66c-.08-1.45-.49-2.37-1.53-2.87a7.45 7.45 0 0 0-3.09-.54V67a11.27 11.27 0 0 1 3.39.07 2.22 2.22 0 0 1 1.4 2 4.43 4.43 0 0 1-.17 1.59z" fill="#e6e6e6"/></g></g></svg>